<svg width="41" height="81" viewBox="0 0 41 81" fill="none" xmlns="http://www.w3.org/2000/svg">
<path d="M25.903 27.0982C31.195 27.0982 35.4853 22.8079 35.4853 17.5136C35.4853 12.2215 31.195 7.92969 25.903 7.92969C20.6086 7.92969 16.3183 12.2215 16.3183 17.5136C16.3183 22.8079 20.6086 27.0982 25.903 27.0982Z" fill="#EAE620"/>
<path d="M25.903 27.0981V27.3928C31.3585 27.3928 35.7801 22.9705 35.7801 17.5134C35.7801 12.0579 31.3585 7.63477 25.903 7.63477C20.4459 7.63477 16.0236 12.0579 16.0236 17.5134C16.0236 22.9705 20.4459 27.3928 25.903 27.3928V26.8033C23.336 26.8033 21.0155 25.7639 19.3336 24.0828C17.6525 22.4009 16.6131 20.0804 16.6131 17.5134C16.6131 14.948 17.6525 12.6274 19.3336 10.9456C21.0155 9.26368 23.336 8.22431 25.903 8.22431C28.4684 8.22431 30.789 9.26368 32.4708 10.9456C34.152 12.6274 35.1906 14.948 35.1906 17.5134C35.1906 20.0804 34.152 22.4009 32.4708 24.0828C30.789 25.7639 28.4684 26.8033 25.903 26.8033V27.0981Z" fill="#EAE620"/>
<path d="M38.9051 41.7307L27.1097 29.9253C26.3267 29.1031 25.12 28.3363 24.0476 28.1436C23.8457 28.0315 23.6346 27.9317 23.4128 27.8488L15.4962 24.8881C15.4102 24.8558 15.3242 24.8267 15.2375 24.8006L15.8109 4.66712C15.8785 2.31202 14.2756 0.354562 12.2314 0.296222C10.188 0.238649 8.47618 2.10092 8.40939 4.45679L7.7546 27.4435C7.7546 28.9634 7.81678 30.0466 7.93269 30.8058L0.673194 50.2245C0.316245 51.181 0.220291 52.1644 0.349253 53.0863C0.348485 53.1155 0.347717 53.1439 0.347717 53.173V76.1682C0.347717 78.5256 2.00504 80.4355 4.05001 80.4355C6.09498 80.4355 7.7523 78.5256 7.7523 76.1682V58.7276L11.364 60.0779C11.45 60.1101 11.5352 60.1393 11.6212 60.1654L20.4482 77.9215C21.4975 80.0325 23.8319 81.0051 25.6635 80.0947C27.4943 79.1842 28.1276 76.7347 27.0782 74.6253L18.0585 56.4808L25.6773 36.1001L31.912 42.6426L27.9756 42.4845C26.164 42.44 24.6671 43.6789 24.6287 45.2503C24.5903 46.8209 26.0273 48.1304 27.8382 48.1742L39.8247 48.4644C40.3951 48.3868 40.8104 46.8746 40.6822 45.3862C40.5693 43.203 38.9051 41.7307 38.9051 41.7307Z" fill="#EAE620"/>
<path d="M38.9051 41.7308L39.1132 41.522L27.3185 29.7166L27.1097 29.9254L27.3231 29.7219C26.9116 29.2898 26.395 28.8783 25.8385 28.5452C25.2812 28.2136 24.6832 27.9595 24.099 27.8543L24.0476 28.1437L24.1912 27.8865C23.9778 27.7676 23.7528 27.6616 23.5156 27.5726L15.5991 24.6118C15.5077 24.578 15.4156 24.5466 15.3242 24.5189L15.2375 24.8007L15.5323 24.8091L16.1057 4.67565C16.1072 4.62498 16.108 4.57509 16.108 4.52519C16.108 3.3108 15.6904 2.20157 14.9988 1.38251C14.3079 0.563442 13.333 0.0322407 12.2399 0.00153545C12.2077 0.000767672 12.1746 0 12.1401 0C11.0462 0 10.0506 0.504334 9.32903 1.30881C8.60592 2.11329 8.14995 3.21945 8.11464 4.44843L7.46062 27.4352L7.45985 27.4413V27.4636C7.45985 28.982 7.52203 30.0689 7.64178 30.8504L7.93271 30.8058L7.65713 30.703L0.396866 50.1218C0.127427 50.8426 0 51.5795 0 52.2972C0 52.5774 0.0191907 52.8545 0.0575724 53.127L0.349273 53.0864L0.0545019 53.0802C0.0545019 53.104 0.0529666 53.1347 0.0529666 53.1731V76.1683C0.0529666 77.4165 0.490517 78.551 1.20902 79.3793C1.92676 80.2068 2.93389 80.7303 4.05003 80.7303C5.16616 80.7303 6.17407 80.2068 6.89103 79.3793C7.60877 78.551 8.04709 77.4165 8.04709 76.1683V59.1522L11.2612 60.3543C11.3525 60.3889 11.4439 60.4188 11.5337 60.4472L11.6212 60.1655L11.3571 60.2967L20.1841 78.0521C21.0124 79.7178 22.5991 80.7288 24.1965 80.7311C24.7408 80.7311 25.2866 80.6114 25.7947 80.3588C26.4664 80.0249 26.9907 79.4991 27.3431 78.8688C27.6962 78.2386 27.8796 77.5032 27.8796 76.7394C27.8796 75.9963 27.7061 75.2249 27.3423 74.4941L18.3794 56.4639L25.7886 36.6437L31.1958 42.3188L27.9871 42.1898H27.9825C27.9503 42.1891 27.9165 42.1883 27.8819 42.1883C26.9293 42.1883 26.0588 42.5168 25.4148 43.0626C24.7723 43.6069 24.3547 44.3783 24.3339 45.2435C24.3332 45.265 24.3332 45.288 24.3332 45.3118C24.3332 46.1761 24.7331 46.9607 25.3664 47.5249C26.0005 48.0906 26.8694 48.4453 27.8313 48.4683L39.8178 48.7592L39.8647 48.7569C39.9814 48.7408 40.0865 48.6932 40.1756 48.6303C40.3322 48.519 40.4465 48.3654 40.5463 48.185C40.6929 47.9141 40.8027 47.5748 40.8802 47.191C40.957 46.8071 41 46.3788 41 45.9366C41 45.7463 40.9923 45.5536 40.9754 45.3609L40.6822 45.3862L40.9762 45.3709C40.9156 44.2072 40.445 43.2453 39.9959 42.5752C39.5453 41.905 39.1132 41.5212 39.1001 41.5097L38.9051 41.7308L38.7094 41.9511C38.7217 41.9618 39.1216 42.3226 39.5254 42.9329C39.9307 43.5432 40.336 44.3983 40.3874 45.4016L40.3882 45.4116C40.4035 45.5866 40.4105 45.7624 40.4105 45.9366C40.4112 46.5523 40.3176 47.1418 40.1733 47.564C40.1019 47.7743 40.0167 47.9417 39.9384 48.0438C39.8992 48.0952 39.8631 48.1298 39.8363 48.1482C39.8086 48.1674 39.7933 48.1712 39.7848 48.1728L39.8248 48.4645L39.8317 48.1697L27.8451 47.8795C27.0199 47.8596 26.2837 47.5548 25.7594 47.0858C25.2344 46.6152 24.9227 45.9904 24.9227 45.3118C24.9227 45.2941 24.9227 45.2765 24.9235 45.2581C24.9404 44.5772 25.2643 43.9646 25.797 43.5117C26.3282 43.0603 27.0659 42.7771 27.8819 42.7778C27.9096 42.7778 27.938 42.7778 27.9679 42.7786L27.9756 42.4846L27.9633 42.7786L31.8997 42.9375C32.0202 42.9421 32.1308 42.8738 32.1799 42.7648C32.2298 42.655 32.2083 42.5268 32.1254 42.4393L25.8907 35.896C25.8208 35.8231 25.718 35.7908 25.6182 35.8108C25.5192 35.8315 25.437 35.9014 25.4017 35.9966L17.7822 56.3772C17.7538 56.4547 17.7576 56.5384 17.7945 56.6121L26.8149 74.7559C27.1381 75.406 27.2901 76.0877 27.2901 76.7394C27.2901 77.4088 27.1289 78.0452 26.8287 78.581C26.5286 79.1168 26.0926 79.552 25.5322 79.8307C25.1077 80.041 24.6556 80.1408 24.1965 80.1416C22.8532 80.1431 21.4476 79.2726 20.7115 77.7895L11.8852 60.0342C11.8484 59.9613 11.7855 59.9075 11.7079 59.8837C11.6266 59.8584 11.5467 59.8315 11.4677 59.8024L7.85595 58.4513C7.76537 58.4176 7.66327 58.4306 7.58421 58.4859C7.50514 58.5404 7.45755 58.631 7.45755 58.7277V76.1683C7.45755 77.2775 7.06682 78.277 6.44504 78.9924C5.82249 79.7094 4.97886 80.1408 4.05003 80.1408C3.12119 80.1408 2.27756 79.7094 1.65425 78.9924C1.03247 78.277 0.641741 77.2775 0.642508 76.1683V53.1731C0.641741 53.1531 0.643276 53.1263 0.644043 53.0917L0.640973 53.0449C0.607197 52.8 0.589541 52.5506 0.589541 52.2972C0.589541 51.6494 0.704686 50.9823 0.949561 50.3283L8.20906 30.9087C8.22671 30.8619 8.23209 30.8104 8.22441 30.7613C8.11234 30.0305 8.04939 28.9651 8.04939 27.4636V27.4452L7.75462 27.4436L8.04939 27.4513L8.70418 4.46532C8.73489 3.37298 9.14173 2.39808 9.76735 1.70261C10.3945 1.0056 11.2305 0.589542 12.1401 0.589542C12.167 0.589542 12.1946 0.590309 12.2238 0.591077C13.1327 0.617176 13.9486 1.05473 14.5482 1.76248C15.1461 2.47101 15.5185 3.44667 15.5185 4.52519C15.5185 4.56895 15.5177 4.61424 15.5169 4.65953L14.9435 24.7922C14.9397 24.925 15.0249 25.0432 15.1515 25.0824C15.2329 25.1069 15.3127 25.1346 15.3926 25.1637L23.3092 28.1253C23.5164 28.202 23.7137 28.2957 23.9041 28.4016C23.9325 28.4177 23.9632 28.4285 23.9954 28.4339C24.4836 28.5214 25.0263 28.7463 25.5361 29.0518C26.0465 29.3558 26.5255 29.7388 26.8963 30.1288L26.9017 30.1334L38.6963 41.9388L38.7094 41.9511L38.9051 41.7308Z" fill="#EAE620"/>
</svg>
