<svg width="100" height="28" viewBox="0 0 100 28" fill="none" xmlns="http://www.w3.org/2000/svg">
<path d="M93.1733 12.6651C92.6661 12.0451 92.0126 11.741 91.224 11.741C90.4354 11.741 89.7931 12.0395 89.2859 12.6423C88.7731 13.2506 88.5141 14.1635 88.5141 15.3918C88.5141 16.62 88.7167 17.606 89.1224 18.2088C89.68 19.0765 90.4294 19.5046 91.3591 19.5046C92.0745 19.5046 92.6889 19.2004 93.1845 18.5921L93.1789 18.5865C93.6805 17.9782 93.9339 17.0145 93.9339 15.6963C93.9339 14.299 93.6805 13.285 93.1733 12.6655V12.6651Z" fill="white"/>
<path d="M97.8385 0H57.2066C55.9448 0.140691 55.2462 0.912496 55.1223 2.32661V25.6734C55.2462 27.0819 55.9392 27.8537 57.1955 28H97.8497C99.1059 27.8537 99.799 27.0815 99.9229 25.6734V2.327C99.799 0.918491 99.1003 0.141091 97.8385 0.000399692V0ZM70.2718 21.792H67.0323V15.313C67.0323 14.0284 66.9703 13.2058 66.8464 12.8677C66.7225 12.5183 66.5027 12.2422 66.1985 12.0395C65.8832 11.8369 65.4887 11.7353 65.0154 11.7353C64.4746 11.7353 63.9958 11.8648 63.5733 12.1298C63.1509 12.3888 62.8411 12.7833 62.6437 13.3129C62.4466 13.8369 62.3507 14.6199 62.3507 15.6511V21.792H59.1056V4.86784H62.3507V10.3608C63.1676 9.57781 64.9143 9.17772 66.2832 9.25086H66.3172C66.9763 9.27884 67.579 9.41434 68.1202 9.65655C68.723 9.93833 69.1738 10.2933 69.4724 10.7269L69.4836 10.7325C69.7877 11.155 69.9908 11.6394 70.1035 12.169C70.2162 12.6874 70.2726 13.4988 70.2726 14.5915V21.7916L70.2718 21.792ZM83.3029 21.792H80.2888V20.4398C79.7481 21.0598 78.6661 22.0002 76.5929 22.0566C76.469 22.0678 76.3507 22.0678 76.2268 22.0678C75.3986 22.0678 74.6604 21.8875 74.0069 21.5214C73.3534 21.1665 72.8802 20.6537 72.5872 20.0002C72.2942 19.3467 72.1479 18.4454 72.1479 17.2959V9.52105H75.393V15.1551C75.393 16.8846 75.4606 17.9326 75.5733 18.3271C75.6916 18.716 75.9114 19.0201 76.2268 19.2456C76.5421 19.471 76.9422 19.5837 77.4266 19.5837C77.9786 19.5837 78.469 19.443 78.9195 19.1328C79.3532 18.8343 79.6517 18.457 79.8208 18.0061C79.9843 17.5553 80.063 16.4457 80.063 14.6991L80.0574 9.52145H83.3025V21.792H83.3029ZM95.7709 20.3779C94.7737 21.5046 93.5626 22.0682 92.1369 22.0682H91.8159C90.1089 22.0682 88.9989 21.4203 88.3059 20.8567V21.792H85.2918V4.86784H88.5369L88.3454 10.3328C89.1456 9.66255 90.8527 9.13855 92.1877 9.25126C92.5594 9.26805 92.8863 9.32441 93.1793 9.39755C94.1877 9.62298 95.1174 10.113 95.8049 10.8736H95.7993C96.7797 11.9552 97.2641 13.5048 97.2641 15.5328C97.2641 17.5609 96.7685 19.24 95.7713 20.3779H95.7709Z" fill="white"/>
<path d="M51.1897 11.4707C51.0658 10.9412 50.8404 10.4567 50.525 10.0398C50.2041 9.61737 49.7364 9.27364 49.1053 9.00305C48.4742 8.73246 47.7983 8.59736 47.0433 8.59736C45.68 8.51862 43.4601 9.03662 42.7954 10.1018V8.88474H39.6234V21.7864H43.0376V15.9441C43.0376 14.502 43.1163 13.5216 43.291 12.9808C43.4601 12.4456 43.7866 12.0231 44.2487 11.685C44.7275 11.3696 45.2627 11.2061 45.8486 11.2061C46.2995 11.2061 46.6936 11.3189 47.0317 11.5443C47.3527 11.7697 47.5953 12.0851 47.736 12.5019C47.8823 12.8964 47.9614 13.7977 47.9614 15.1951V21.7756H51.37V13.7698C51.37 12.7725 51.3024 12.0063 51.1785 11.4711M34.9303 8.64253C33.9162 8.77203 32.9586 9.589 32.5357 10.1074V8.88474H29.3637V21.7864H32.7779V17.8031C32.7779 15.606 32.8738 14.1635 33.0597 13.4764C33.2511 12.7889 33.5105 12.3157 33.8483 12.0511C34.1752 11.7805 34.5805 11.6566 35.0598 11.6566C35.539 11.6566 36.085 11.8369 36.6597 12.2086L37.7189 9.23407C36.9979 8.806 36.254 8.59176 35.4654 8.59176C35.2852 8.59176 35.1049 8.60855 34.9303 8.63693M21.0146 8.59176C19.7468 8.59176 18.6032 8.87355 17.578 9.42552C16.564 9.98909 15.7638 10.7945 15.2119 11.8481C14.6483 12.9184 14.3669 14.0116 14.3669 15.1495C14.3669 16.6312 14.6487 17.8874 15.2119 18.9242C15.7638 19.9494 16.5808 20.7272 17.6572 21.268C18.7276 21.8032 19.8543 22.0682 21.0374 22.0682C22.9531 22.0682 24.5303 21.4259 25.7925 20.1524C27.0547 18.879 27.6798 17.2455 27.6798 15.2902C27.6798 13.3349 27.0599 11.7577 25.8093 10.4903C24.5698 9.22248 22.9699 8.59176 21.0206 8.59176M23.2736 18.2707C22.6653 18.9466 21.9215 19.2847 21.0314 19.2847C20.1413 19.2847 19.3974 18.9466 18.7779 18.2707C18.1752 17.5948 17.8766 16.6088 17.8766 15.3298C17.8766 14.0508 18.1752 13.0763 18.7779 12.3888C19.3978 11.713 20.1413 11.3748 21.0314 11.3748C21.9215 11.3748 22.6653 11.713 23.2736 12.3888C23.8764 13.0647 24.175 14.0396 24.175 15.3074C24.175 16.5752 23.8764 17.5892 23.2736 18.2707ZM10.0451 4.24792C9.38036 4.06766 7.96066 3.97733 5.76315 3.97733H0V21.7804H3.59443V15.0648H5.93822C7.57216 15.0648 8.8116 14.9804 9.66774 14.8114C10.2989 14.6707 10.9184 14.3889 11.5271 13.9664C12.1358 13.5439 12.6538 12.9524 13.0483 12.2086C13.4428 11.4647 13.6399 10.5467 13.6399 9.44791C13.6399 8.03939 13.3017 6.87869 12.6147 5.98298C11.9216 5.08167 11.0711 4.50692 10.051 4.23633M9.53265 10.8848C9.26805 11.2793 8.89594 11.5723 8.41711 11.7581C7.93828 11.944 6.99181 12.0399 5.5721 12.0399H3.60042V6.9862H5.34707C6.64288 6.9862 7.49941 7.03137 7.92748 7.1157C8.51343 7.21723 8.99786 7.48182 9.37557 7.9043C9.75288 8.32117 9.93913 8.86196 9.93913 9.50426C9.93913 10.0339 9.80963 10.4959 9.54464 10.8904" fill="white"/>
</svg>
