<svg width="195" height="151" viewBox="0 0 195 151" fill="none" xmlns="http://www.w3.org/2000/svg">
<path d="M189.902 144.598C189.051 143.534 187.991 142.683 186.94 141.807C187.178 141.894 187.416 141.99 187.641 142.107C188.346 142.462 192.677 147.001 193.528 145.729C193.528 145.729 193.528 145.72 193.52 145.708C193.399 145.512 191.121 143.488 189.84 142.374C189.393 141.986 189.068 141.707 188.997 141.652C188.834 141.531 188.663 141.414 188.496 141.298C188.338 141.185 188.179 141.068 188.016 140.956C185.334 139.111 182.376 137.71 179.38 136.312C179.15 136.149 178.971 136.02 178.896 135.966C178.683 135.799 177.94 135.465 177.073 135.085C176.184 134.447 170.359 125.727 167.264 121.488C164.656 115.814 161.155 108.308 158.243 102.529L158.181 102.587C152.047 88.9317 144.642 75.5554 138.287 64.4405C136.422 61.1778 134.724 57.6731 131.941 55.1072C131.52 54.5815 131.078 54.2769 130.673 54.0641C130.644 54.0432 130.615 54.0182 130.581 53.9932C130.093 53.6469 129.551 53.3799 128.992 53.1796C126.267 51.4565 124.064 51.6484 120.835 51.7861C119.187 51.857 117.693 52.2992 116.058 51.8945C115.386 51.7276 114.188 50.8515 113.963 50.1714C113.571 48.999 113.825 47.6889 113.483 46.5415C113.287 45.8865 113.045 45.1772 112.761 44.4596C112.916 44.1341 113.066 43.8087 113.204 43.4874C113.6 42.5654 113.366 41.3471 113.775 40.5293C113.888 40.2998 114.397 40.3374 114.539 40.0537C115.352 38.4265 116.917 35.919 116.354 33.9455C116.249 33.5867 115.982 32.8649 115.59 32.8023C115.307 32.7564 114.856 32.7731 114.635 32.9942C114.539 33.0902 114.38 33.4114 114.347 33.2821C114.209 32.7314 114.843 31.6007 114.919 30.9915C115.236 28.4631 115.152 25.6802 114.347 23.2603C113.588 20.9823 111.622 19.3843 109.49 18.3579C112.857 16.7349 115.156 13.4806 115.156 9.72553C115.156 4.35166 110.45 0 104.646 0C98.8428 0 94.1365 4.35584 94.1365 9.72553C94.1365 12.8964 95.7762 15.7085 98.3088 17.4859C97.249 18.0075 96.2268 18.6542 95.4549 19.5387C93.0392 22.2965 92.3716 26.1434 92.0212 29.6564C91.9002 30.8455 91.8209 32.4685 92.0212 33.6659C92.163 34.5254 92.4467 35.3599 92.4885 36.2235C92.4467 36.0942 92.2548 35.8355 92.2089 35.7646C92.0378 35.4809 91.9419 35.168 91.7333 34.9051C91.3119 34.3752 89.764 33.5908 89.5387 34.7132C89.159 36.6157 90.661 39.5154 92.1171 40.7254C92.5635 41.0967 93.302 41.4347 93.6442 41.7768C93.8736 42.0063 93.6442 42.1022 93.7401 42.3484C94.124 43.308 94.5245 44.5847 94.9793 45.4985C95.9014 47.3384 97.0237 48.8071 98.459 50.0087C98.3421 52.2992 98.0626 54.5272 96.6899 56.2879C94.7331 58.8038 93.1101 58.6953 90.394 59.438C90.3189 59.4588 90.2479 59.4839 90.1729 59.5047C84.9158 58.5827 76.9677 57.3852 73.7717 57.4436C68.1266 57.5438 36.1296 65.154 30.4178 67.6865C28.9575 68.3332 12.9485 76.6903 14.8761 80.3452C18.3057 86.8372 30.6973 87.4213 43.4769 85.7691C34.2271 96.7046 27.1217 110.515 19.7869 121.926C18.0679 124.6 16.3156 128.022 14.05 130.784C13.9374 130.988 13.7329 131.334 13.6244 131.543C12.3686 133.98 11.1712 136.641 9.94034 139.554C9.32285 140.217 8.67198 140.759 7.62891 141.106C6.26041 141.561 0.37753 141.018 0.81979 143.676C0.919924 144.277 1.91709 144.535 2.35935 144.702C4.34952 145.449 6.83619 145.128 8.9098 144.832C12.5563 144.31 14.8636 141.26 17.901 139.437C22.1692 136.875 27.9603 138.06 31.5151 133.913C33.4719 131.626 32.4497 128.184 31.6444 125.564C31.4108 124.805 31.052 124.267 30.7683 123.678C30.7683 122.226 31.052 120.745 32.0617 119.268C40.5772 106.781 56.0772 102.35 64.405 89.3948L64.6178 89.1027C68.9361 102.754 77.3974 122.155 87.6278 128.117C85.0702 128.631 82.5543 129.411 80.172 130.408C79.1039 130.859 77.4642 131.585 76.6464 132.415C76.5337 132.528 75.0985 134.03 74.844 133.537C74.8106 133.471 75.8912 131.28 75.6784 130.533C75.0484 128.318 71.4686 126.853 69.2615 127.291C66.4744 127.846 63.9627 129.407 61.5762 130.842C59.7696 131.927 58.9101 133.137 56.7906 132.707C52.8478 131.906 49.147 134.856 46.4351 137.23C45.5255 138.027 44.0402 138.348 44.8079 139.846C45.1459 140.501 47.3905 140.071 47.8829 140.05C50.0483 139.946 52.1761 139.658 54.3373 139.508C55.5598 139.424 56.6237 138.819 57.8796 139.078C60.6458 139.641 63.7082 140.3 66.3367 141.273C71.4811 143.175 76.0998 146.158 81.457 147.573C85.7503 148.708 90.2313 148.891 94.4578 147.435C96.0975 146.868 97.5452 145.829 98.9513 144.807C101.275 145.09 103.591 144.902 105.969 144.769C107.212 144.698 108.46 144.89 109.712 144.698C116.149 143.705 123.413 141.339 128.441 137.1C129.513 136.199 130.206 134.806 130.886 133.621C133.026 129.899 133.327 126.019 132.601 121.872C132.338 120.37 131.578 118.354 130.748 117.107C130.494 116.723 129.972 115.968 129.797 115.672C129.567 115.288 129.317 114.942 129.054 114.624C129.033 113.819 129.021 113.014 129.046 112.209C129.204 107.427 129.926 102.487 129.526 97.7059C129.104 92.6283 127.452 87.5423 127.99 82.4271C128.174 80.6873 128.566 79.3438 129.05 78.1255C132.868 83.3116 137.699 89.424 139.481 93.0205C146.795 107.778 152.74 121.93 165.507 132.961C164.447 135.507 165.837 140.68 167.138 142.412C168.315 143.98 169.863 145.403 171.173 146.859C171.594 147.331 173.084 150.201 173.76 150.068C175.375 149.746 171.211 143.501 170.964 143.133C170.485 142.412 171.094 141.669 171.59 140.935C172.128 141.427 172.663 141.823 172.971 142.011C175.687 143.672 177.995 144.882 180.269 146.371C180.611 146.638 180.957 146.909 181.307 147.201C181.483 147.347 182.246 147.898 183.089 148.399C183.298 148.566 183.51 148.737 183.723 148.916C184.12 149.246 187.495 151.632 188.025 150.84C188.359 150.339 184.391 146.776 183.836 146.083C182.726 144.698 181.266 143.684 179.939 142.487C180.565 142.795 181.178 143.113 181.758 143.459C183.748 144.652 185.642 146.78 187.303 148.441C187.929 149.066 190.778 151.019 191.717 150.706C192.055 150.593 191.371 150.08 191.15 149.801C190.199 148.578 189.143 147.385 188.167 146.154C188.701 146.551 189.243 146.972 189.79 147.427C190.186 147.756 193.57 150.139 194.095 149.346C194.429 148.845 190.457 145.29 189.902 144.598ZM74.7605 75.1215L75.7368 73.7739C75.8912 73.1689 75.9204 72.6557 75.8578 72.2176C77.823 72.6015 80.3806 73.5068 82.6127 74.2537C83.9645 76.7487 87.3357 82.8443 88.8461 85.4145C94.2199 94.5434 96.2226 96.3458 97.4451 103.259C97.4701 103.409 97.4534 103.918 97.4701 104.152C97.5244 104.331 97.6036 104.515 97.6579 104.699C98.1627 106.372 98.267 108.191 98.0835 110.239C93.0726 97.5223 83.0049 81.9056 74.7564 75.1131L74.7605 75.1215Z" fill="black"/>
</svg>
