<svg width="323" height="64" viewBox="0 0 323 64" fill="none" xmlns="http://www.w3.org/2000/svg">
<path d="M317.986 0H255.641C255.124 0 254.624 0.190629 254.238 0.538527L251.776 2.74983C251.39 3.09534 250.892 3.28835 250.373 3.28835H31.0585C30.4985 3.28835 29.9623 3.06436 29.5668 2.66643L27.539 0.621928C27.1458 0.223989 26.6096 0 26.0497 0H9.0813C8.5237 0 7.98756 0.221606 7.59439 0.617162L4.561 3.66008C4.16783 4.05325 3.9486 4.58702 3.9486 5.14222V24.7103H3.83899L1.53714 27.0122C1.14159 27.4077 0.919983 27.9415 0.919983 28.4967V35.6882C0.919983 36.2458 1.14159 36.7795 1.53476 37.1727L3.83661 39.4745H3.94622V39.4769C15.3435 39.4769 24.5818 48.7153 24.5818 60.1125H45.4915V60.2221L48.0292 62.7599C48.4224 63.1531 48.9562 63.3747 49.5137 63.3747H314.731C315.289 63.3747 315.823 63.1531 316.216 62.7599L318.139 60.8369C318.532 60.4438 318.754 59.91 318.754 59.3524V37.3038C318.754 36.7366 318.982 36.1933 319.39 35.7978L322.385 32.8859C322.778 32.4927 323 31.959 323 31.4014V5.01355C323 4.45596 322.778 3.9222 322.385 3.52902L319.471 0.614779C319.078 0.221606 318.544 0 317.986 0Z" fill="black"/>
</svg>
