<svg width="323" height="64" viewBox="0 0 323 64" fill="none" xmlns="http://www.w3.org/2000/svg">
<path d="M317.066 0H254.721C254.204 0 253.704 0.190629 253.318 0.538527L250.856 2.74983C250.47 3.09534 249.972 3.28835 249.453 3.28835H30.1385C29.5785 3.28835 29.0424 3.06436 28.6468 2.66643L26.619 0.621928C26.2258 0.223989 25.6897 0 25.1297 0H8.16131C7.60372 0 7.06758 0.221606 6.6744 0.617162L3.64102 3.66008C3.24785 4.05325 3.02862 4.58702 3.02862 5.14222V24.7103H2.91901L0.617162 27.0122C0.221606 27.4077 0 27.9415 0 28.4967V35.6882C0 36.2458 0.221607 36.7795 0.614779 37.1727L2.91663 39.4745H3.02624V39.4769C14.4235 39.4769 23.6618 48.7153 23.6618 60.1125H44.5715V60.2221L47.1092 62.7599C47.5024 63.1531 48.0362 63.3747 48.5938 63.3747H313.811C314.369 63.3747 314.903 63.1531 315.296 62.7599L317.219 60.8369C317.612 60.4438 317.834 59.91 317.834 59.3524V37.3038C317.834 36.7366 318.062 36.1933 318.47 35.7978L321.465 32.8859C321.858 32.4927 322.08 31.959 322.08 31.4014V5.01355C322.08 4.45596 321.858 3.9222 321.465 3.52902L318.551 0.614779C318.158 0.221606 317.624 0 317.066 0Z" fill="#EAE620"/>
</svg>
