<svg width="67" height="67" viewBox="0 0 67 67" fill="none" xmlns="http://www.w3.org/2000/svg">
<path d="M12.8619 37.1663L10.8682 38.9706V41.1538H21.8101V38.187H15.9953V38.1399L17.419 36.9527C19.6504 34.9589 21.5254 32.8945 21.5254 30.3071C21.5254 27.5062 19.6028 25.4653 16.1141 25.4653C14.025 25.4653 12.2213 26.1772 11.0582 27.0555L12.0789 29.6429C12.886 29.0252 14.0491 28.361 15.3781 28.361C17.1583 28.361 17.9178 29.3576 17.9178 30.616C17.8702 32.4197 16.2324 34.1523 12.8619 37.1663Z" fill="#EAE620"/>
<path d="M26.9608 34.7695V34.7219L29.0257 31.3514C29.5481 30.3784 29.9512 29.4765 30.45 28.4793H30.5448C30.4736 29.4765 30.4259 30.426 30.4259 31.3514V34.7695H26.9608ZM33.844 41.1539V37.4752H35.6954V34.7695H33.844V25.7266H29.4293L23.5903 35.1254V37.4752H30.4259V41.1539H33.844Z" fill="#EAE620"/>
<path d="M38.9946 42.1033L44.0741 24.8958H41.6767L36.5973 42.1033H38.9946Z" fill="#EAE620"/>
<path d="M45.949 41.1539H49.7702L56.131 28.0051V25.7266H45.2366V28.6934H52.3099V28.7405L45.949 41.1539Z" fill="#EAE620"/>
<path d="M66.9725 32.1512L61.0482 32.3888C61.3554 40.0593 58.42 47.5701 52.9951 52.9951C42.2452 63.7449 24.754 63.7449 14.0046 52.9951C3.25474 42.2452 3.25474 24.754 14.0046 14.0041C24.754 3.25422 42.2452 3.25422 52.9951 14.0041L49.8408 17.1583H60.3421V6.6571L57.1878 9.81187C50.8605 3.48453 42.4478 0 33.4996 0C24.5519 0 16.1392 3.48453 9.81187 9.81187C3.48453 16.1392 0 24.5514 0 33.4996C0 42.4478 3.48453 50.86 9.81187 57.1873C16.1392 63.5146 24.5519 66.9992 33.4996 66.9992C42.4478 66.9992 50.8605 63.5146 57.1878 57.1873C60.5525 53.8226 63.1126 49.8796 64.7971 45.467C66.4239 41.2062 67.1557 36.7261 66.9725 32.1512Z" fill="#EAE620"/>
</svg>
