<svg width="64" height="64" viewBox="0 0 64 64" fill="none" xmlns="http://www.w3.org/2000/svg">
<path d="M64 10.176L27.488 46.72L13.92 33.152L18.432 28.64L27.488 37.696L59.488 5.696L64 10.176ZM56.928 26.304C57.344 28.128 57.6 30.048 57.6 32C57.6 46.144 46.144 57.6 32 57.6C17.856 57.6 6.4 46.144 6.4 32C6.4 17.856 17.856 6.4 32 6.4C37.056 6.4 41.728 7.872 45.696 10.4L50.304 5.792C45.12 2.144 38.816 0 32 0C14.336 0 0 14.336 0 32C0 49.664 14.336 64 32 64C49.664 64 64 49.664 64 32C64 28.192 63.296 24.544 62.08 21.152L56.928 26.304Z" fill="#EAE620"/>
</svg>
