<svg width="67" height="78" viewBox="0 0 67 78" fill="none" xmlns="http://www.w3.org/2000/svg">
<path d="M44.5658 49.8387H22.4168V38.7642H44.5658V49.8387ZM27.9506 27.6897C27.9506 22.6377 32.1973 22.1765 33.5051 22.149C34.4412 22.149 39.032 22.4243 39.032 27.6897V33.2235H27.9506V27.6897ZM47.3327 33.2235H44.5727V27.6897C44.5727 19.561 37.9445 16.6152 33.4982 16.6152V18.0881L33.4913 16.6152C29.0381 16.6152 22.4168 19.561 22.4168 27.6897V33.2235H19.6499C18.115 33.2235 16.8761 34.4693 16.8761 35.9973V52.6056C16.8761 54.1405 18.115 55.3794 19.6499 55.3794H47.3327C48.8676 55.3794 50.1065 54.1405 50.1065 52.6056V35.9973C50.1065 34.4693 48.8676 33.2235 47.3327 33.2235ZM33.4982 71.6986C4.39065 57.396 5.03764 23.8146 5.62957 15.8443L33.4982 5.71276L61.3737 15.8443C61.9588 23.8215 62.592 57.396 33.4982 71.6986ZM66.7148 13.4973L66.5083 11.8178L34.4549 0.165188L33.9731 0H32.9958L0.494964 11.8178L0.288478 13.4973C0.233415 13.9584 -5.07326 60.0115 32.3281 77.2737L32.8787 77.5284H34.1177L34.6683 77.2737C72.049 60.0115 66.7699 13.9584 66.7148 13.4973Z" fill="#EAE620"/>
</svg>
