<svg width="67" height="67" viewBox="0 0 67 67" fill="none" xmlns="http://www.w3.org/2000/svg">
<path d="M33.5 62.0805C17.745 62.0805 4.92734 49.2628 4.92734 33.5078C4.92734 17.7529 17.745 4.93515 33.5 4.93515C49.2549 4.93515 62.0727 17.7529 62.0727 33.5078C62.0727 49.2628 49.2549 62.0805 33.5 62.0805ZM33.5 0.0078125C15.0289 0.0078125 0 15.0367 0 33.5078C0 51.9789 15.0289 67.0078 33.5 67.0078C51.9711 67.0078 67 51.9789 67 33.5078C67 15.0367 51.9711 0.0078125 33.5 0.0078125Z" fill="#EAE620"/>
<path d="M25.2816 27.1764C25.4733 27.3165 25.6723 27.4418 25.816 27.6261C26.0187 27.8877 26.0666 28.2341 26.1219 28.5621C26.4352 30.4232 27.128 32.2475 28.3331 33.6959C29.5345 35.1442 31.2814 36.1945 33.161 36.3346C33.2752 36.3456 33.3894 36.3493 33.5 36.353C33.6143 36.3493 33.7248 36.3456 33.8391 36.3346C35.7186 36.1945 37.4655 35.1442 38.6669 33.6959C39.872 32.2475 40.5649 30.4232 40.8781 28.5621C40.9334 28.2341 40.985 27.8877 41.1877 27.6261C41.3277 27.4418 41.5304 27.3165 41.7184 27.1764C42.5955 26.5278 43.1925 25.507 43.3215 24.4198C43.4063 23.6938 43.0746 22.7429 42.3449 22.7466C42.6508 20.9592 42.9235 19.1092 42.496 17.3476C41.9764 15.1953 40.4027 13.3489 38.4126 12.3686C36.9053 11.6242 35.1768 11.3662 33.5 11.5542C31.8232 11.3662 30.0984 11.6242 28.5874 12.3686C26.5973 13.3489 25.0237 15.1953 24.504 17.3476C24.0765 19.1092 24.3492 20.9592 24.6588 22.7466C23.9254 22.7429 23.5937 23.6938 23.6822 24.4198C23.8112 25.507 24.4045 26.5278 25.2816 27.1764Z" fill="#EAE620"/>
<path d="M54.0717 44.6891C52.1848 41.656 44.6224 40.1156 44.6224 40.1156C43.1077 39.806 41.77 39.3527 40.8892 39.021L35.8586 47.2062L35.3464 43.1081C35.8144 42.8833 36.135 42.4079 36.135 41.855V41.5344C36.135 40.7642 35.5122 40.1413 34.7456 40.1413H32.258C31.4878 40.1413 30.865 40.7642 30.865 41.5344V41.855C30.865 42.4079 31.1856 42.8833 31.6536 43.1081L31.1414 47.2062L26.1108 39.021C25.23 39.3527 23.8922 39.806 22.3776 40.1156C22.3776 40.1156 14.8189 41.656 12.9283 44.6891C12.9283 44.6891 12.3202 45.2014 11.8816 46.6129C15.8581 53.1544 22.7203 57.7574 30.6881 58.6419L33.3526 58.723V58.7303L33.5 58.7267L33.6511 58.7303V58.723L36.3119 58.6419C44.2797 57.7574 51.1418 53.1544 55.122 46.6129C54.6798 45.2014 54.0717 44.6891 54.0717 44.6891Z" fill="#EAE620"/>
</svg>
