<svg width="67" height="67" viewBox="0 0 67 67" fill="none" xmlns="http://www.w3.org/2000/svg">
<path d="M12.8352 15.4023C17.0885 15.4023 20.5364 11.9544 20.5364 7.70115C20.5364 3.44792 17.0885 0 12.8352 0C8.58202 0 5.13409 3.44792 5.13409 7.70115C5.13409 11.9544 8.58202 15.4023 12.8352 15.4023Z" fill="#EAE620"/>
<path d="M53.9081 15.4023C58.1613 15.4023 61.6092 11.9544 61.6092 7.70115C61.6092 3.44792 58.1613 0 53.9081 0C49.6548 0 46.2069 3.44792 46.2069 7.70115C46.2069 11.9544 49.6548 15.4023 53.9081 15.4023Z" fill="#EAE620"/>
<path d="M20.2797 38.7623C18.7395 37.4788 17.9693 35.1685 17.9693 33.3715C17.9693 31.5746 18.4828 29.2643 20.2797 27.9807C20.7931 27.724 21.0498 27.4673 25.4138 26.9539C24.9004 21.8198 20.5364 17.9692 15.4023 17.9692H10.2682C4.62069 17.9692 0 22.5899 0 28.2374V40.5593C0 42.6129 1.02682 44.1531 2.82375 45.18L4.87739 46.2068L7.18774 66.7432H18.4828L20.7931 45.9501L22.8467 44.9233C24.6437 44.1531 25.6705 42.3562 25.6705 40.3026V39.7892C21.3065 39.5325 20.7931 39.2758 20.2797 38.7623Z" fill="#EAE620"/>
<path d="M56.475 17.9692H51.3409C46.2068 17.9692 41.8428 21.8198 41.3294 26.6972C43.6398 28.7508 45.18 30.5478 45.4367 30.8045C45.9501 31.5746 46.2068 32.3447 46.2068 33.1148C46.2068 33.8849 45.9501 34.9118 45.4367 35.4252C45.18 35.6819 43.6398 37.4788 41.3294 39.7892V40.3026C41.3294 42.3562 42.3562 43.8964 44.1532 44.9233L46.2068 45.9501L48.5171 66.7432H59.8122L62.1225 45.9501L64.1761 44.9233C65.9731 44.1531 66.9999 42.3562 66.9999 40.3026V28.2374C66.7432 22.5899 62.1225 17.9692 56.475 17.9692Z" fill="#EAE620"/>
<path d="M43.3832 32.6014C43.6399 32.8581 43.6399 33.1148 43.6399 33.3715C43.6399 33.6282 43.6399 33.8849 43.3832 34.1416C43.1265 34.3983 38.2491 39.7891 33.115 43.383C32.6016 43.6397 32.0882 43.6397 31.8315 43.383C31.3181 43.1263 31.0614 42.6129 31.0614 42.3562V37.7355C31.0614 37.7355 22.3334 37.2221 22.0767 36.7087C21.3066 36.1953 21.0499 34.655 21.0499 33.3715C21.0499 32.088 21.5633 30.5477 22.0767 30.291C22.5901 30.0343 31.0614 29.2642 31.0614 29.2642V24.3868C31.0614 23.8734 31.3181 23.36 31.8315 23.36C32.3449 23.1033 32.8583 23.1033 33.115 23.36C37.9924 26.9539 43.1265 32.3447 43.3832 32.6014Z" fill="#EAE620"/>
</svg>
