<svg width="67" height="67" viewBox="0 0 67 67" fill="none" xmlns="http://www.w3.org/2000/svg">
<path d="M43.3529 15.7647C44.0773 15.7647 44.6666 15.1753 44.6666 14.451V9.19605C44.6666 8.47166 44.0773 7.88232 43.3529 7.88232C42.6285 7.88232 42.0392 8.47166 42.0392 9.19605V14.451C42.0392 15.1753 42.6285 15.7647 43.3529 15.7647Z" fill="#EAE620"/>
<path d="M61.7451 17.0784H61.6977C61.0218 7.54788 53.0527 0 43.3529 0C33.6532 0 25.6841 7.54788 25.0082 17.0784H5.2549C2.35735 17.0784 0 19.4358 0 22.3333V52.549C0 55.4466 2.35735 57.8039 5.2549 57.8039H12.2477L9.28988 65.1984C9.07627 65.7327 9.2351 66.3439 9.68189 66.7065C10.129 67.0691 10.7597 67.0985 11.2384 66.7794L24.7016 57.8039H61.7451C64.6427 57.8039 67 55.4466 67 52.549V22.3333C67 19.4358 64.6427 17.0784 61.7451 17.0784ZM39.4118 9.19608C39.4118 7.02291 41.1798 5.2549 43.3529 5.2549C45.5261 5.2549 47.2941 7.02291 47.2941 9.19608V14.451C47.2941 16.6241 45.5261 18.3922 43.3529 18.3922C41.1798 18.3922 39.4118 16.6241 39.4118 14.451V9.19608ZM35.4706 13.1373C36.196 13.1373 36.7843 13.7255 36.7843 14.451C36.7843 18.0729 39.731 21.0196 43.3529 21.0196C46.9749 21.0196 49.9216 18.0729 49.9216 14.451C49.9216 13.7255 50.5099 13.1373 51.2353 13.1373C51.9607 13.1373 52.549 13.7255 52.549 14.451C52.549 19.0782 49.1131 22.9164 44.6589 23.5527V30.3162C44.6589 31.0416 44.0706 31.6299 43.3452 31.6299C42.6198 31.6299 42.0315 31.0416 42.0315 30.3162V23.5508C37.5849 22.9078 34.1569 19.0729 34.1569 14.451C34.1569 13.7255 34.7452 13.1373 35.4706 13.1373ZM64.3726 52.549C64.3726 53.9978 63.1939 55.1765 61.7451 55.1765H24.3039C24.0445 55.1765 23.791 55.2532 23.5752 55.3972L13.3004 62.2471L15.408 56.9782C15.7531 56.1154 15.116 55.1765 14.1882 55.1765H5.2549C3.80613 55.1765 2.62745 53.9978 2.62745 52.549V22.3333C2.62745 20.8846 3.80613 19.7059 5.2549 19.7059H25.0082C25.6841 29.2364 33.6532 36.7843 43.3529 36.7843C53.0527 36.7843 61.0218 29.2364 61.6977 19.7059H61.7451C63.1939 19.7059 64.3726 20.8846 64.3726 22.3333V52.549Z" fill="#EAE620"/>
<path d="M49.9215 42.0393H9.19605C8.47061 42.0393 7.88232 42.6276 7.88232 43.353C7.88232 44.0786 8.47061 44.6668 9.19605 44.6668H49.9215C50.647 44.6668 51.2353 44.0786 51.2353 43.353C51.2353 42.6276 50.647 42.0393 49.9215 42.0393Z" fill="#EAE620"/>
<path d="M9.19605 36.7842H24.9608C25.6863 36.7842 26.2745 36.196 26.2745 35.4705C26.2745 34.745 25.6863 34.1567 24.9608 34.1567H9.19605C8.47061 34.1567 7.88232 34.745 7.88232 35.4705C7.88232 36.196 8.47061 36.7842 9.19605 36.7842Z" fill="#EAE620"/>
<path d="M9.19605 28.9019H19.7059C20.4314 28.9019 21.0196 28.3136 21.0196 27.5881C21.0196 26.8626 20.4314 26.2744 19.7059 26.2744H9.19605C8.47061 26.2744 7.88232 26.8626 7.88232 27.5881C7.88232 28.3137 8.47061 28.9019 9.19605 28.9019Z" fill="#EAE620"/>
</svg>
