<svg width="67" height="67" viewBox="0 0 67 67" fill="none" xmlns="http://www.w3.org/2000/svg">
<path fill-rule="evenodd" clip-rule="evenodd" d="M67 33.5C67 52.0016 52.0016 67 33.5 67C14.9985 67 0 52.0016 0 33.5C0 14.9985 14.9985 0 33.5 0C52.0016 0 67 14.9985 67 33.5ZM20.1 16.5267C19.311 16.5267 18.6154 17.0442 18.3887 17.7999L15.7087 26.7332C15.6587 26.8998 15.6333 27.0727 15.6333 27.2467C15.6333 29.0592 16.308 30.7141 17.42 31.974V48.6867C17.42 49.6734 18.2199 50.4733 19.2067 50.4733H47.7933C48.78 50.4733 49.58 49.6734 49.58 48.6867V31.974C50.692 30.7141 51.3667 29.0592 51.3667 27.2467C51.3667 27.0727 51.3412 26.8998 51.2914 26.7332L48.6114 17.7999C48.3845 17.0442 47.689 16.5267 46.9 16.5267H20.1ZM46.0067 34.1682C45.4356 34.3152 44.8368 34.3933 44.22 34.3933C42.0854 34.3933 40.1696 33.4576 38.86 31.974C37.5504 33.4576 35.6346 34.3933 33.5 34.3933C31.3654 34.3933 29.4496 33.4576 28.14 31.974C26.8304 33.4576 24.9146 34.3933 22.78 34.3933C22.1632 34.3933 21.5644 34.3152 20.9933 34.1682V46.9H46.0067V34.1682Z" fill="#EAE620"/>
</svg>
