<svg width="31" height="30" viewBox="0 0 31 30" fill="none" xmlns="http://www.w3.org/2000/svg">
<path d="M27.3969 26.1436L18.2285 12.824L17.192 11.3176L10.6338 1.7896L10.0902 1H2.03133L3.99681 3.8562L12.717 16.5262L13.7535 18.031L20.76 28.2111L21.3036 29H29.3624L27.3969 26.1438V26.1436ZM22.2615 27.1766L14.9824 16.6006L13.9458 15.0951L5.49931 2.8229H9.13267L15.9636 12.7477L17.0001 14.2532L25.8951 27.1766H22.2618H22.2615Z" fill="black" stroke="black"/>
<path d="M13.9458 15.0952L14.9824 16.6007L13.7535 18.0309L4.32504 28.9996H2L12.717 16.5261L13.9458 15.0952Z" fill="black" stroke="black"/>
<path d="M28.3922 1L18.2288 12.824L16.9999 14.2532L15.9634 12.7477L17.1922 11.3176L24.0768 3.30431L26.0672 1H28.3922Z" fill="black" stroke="black"/>
</svg>
