<svg width="100" height="28" viewBox="0 0 100 28" fill="none" xmlns="http://www.w3.org/2000/svg">
<path d="M93.1733 12.6653C92.6661 12.0454 92.0126 11.7412 91.224 11.7412C90.4354 11.7412 89.7931 12.0398 89.2859 12.6425C88.7731 13.2508 88.5141 14.1637 88.5141 15.392C88.5141 16.6202 88.7168 17.6063 89.1224 18.209C89.68 19.0768 90.4294 19.5048 91.3591 19.5048C92.0746 19.5048 92.6889 19.2007 93.1845 18.5923L93.1789 18.5867C93.6805 17.9784 93.9339 17.0147 93.9339 15.6966C93.9339 14.2992 93.6805 13.2852 93.1733 12.6657V12.6653Z" fill="black"/>
<path d="M97.8385 0H57.2067C55.9448 0.140691 55.2462 0.912496 55.1223 2.32661V25.6734C55.2462 27.0819 55.9392 27.8537 57.1955 28H97.8497C99.1059 27.8537 99.799 27.0815 99.9229 25.6734V2.327C99.799 0.918491 99.1003 0.141091 97.8385 0.000399692V0ZM70.2718 21.792H67.0323V15.313C67.0323 14.0284 66.9703 13.2058 66.8464 12.8677C66.7225 12.5183 66.5027 12.2422 66.1985 12.0395C65.8832 11.8369 65.4887 11.7353 65.0154 11.7353C64.4747 11.7353 63.9958 11.8648 63.5734 12.1298C63.1509 12.3888 62.8411 12.7833 62.6437 13.3129C62.4466 13.8369 62.3507 14.6199 62.3507 15.6511V21.792H59.1056V4.86784H62.3507V10.3608C63.1677 9.57781 64.9143 9.17772 66.2833 9.25086H66.3172C66.9763 9.27884 67.5791 9.41434 68.1202 9.65655C68.723 9.93833 69.1738 10.2933 69.4724 10.7269L69.4836 10.7325C69.7878 11.155 69.9908 11.6394 70.1035 12.169C70.2162 12.6874 70.2726 13.4988 70.2726 14.5915V21.7916L70.2718 21.792ZM83.3029 21.792H80.2889V20.4398C79.7481 21.0598 78.6661 22.0002 76.5929 22.0566C76.469 22.0678 76.3507 22.0678 76.2268 22.0678C75.3986 22.0678 74.6604 21.8875 74.0069 21.5214C73.3534 21.1665 72.8802 20.6537 72.5872 20.0002C72.2942 19.3467 72.1479 18.4454 72.1479 17.2959V9.52105H75.393V15.1551C75.393 16.8846 75.4606 17.9326 75.5733 18.3271C75.6916 18.716 75.9114 19.0201 76.2268 19.2456C76.5421 19.471 76.9422 19.5837 77.4267 19.5837C77.9786 19.5837 78.4691 19.443 78.9195 19.1328C79.3532 18.8343 79.6518 18.457 79.8208 18.0061C79.9843 17.5553 80.063 16.4457 80.063 14.6991L80.0574 9.52145H83.3025V21.792H83.3029ZM95.7709 20.3779C94.7737 21.5046 93.5626 22.0682 92.1369 22.0682H91.816C90.1089 22.0682 88.9989 21.4203 88.3059 20.8567V21.792H85.2918V4.86784H88.5369L88.3454 10.3328C89.1456 9.66255 90.8527 9.13855 92.1877 9.25126C92.5594 9.26805 92.8863 9.32441 93.1793 9.39755C94.1877 9.62298 95.1174 10.113 95.8049 10.8736H95.7993C96.7797 11.9552 97.2642 13.5048 97.2642 15.5328C97.2642 17.5609 96.7685 19.24 95.7713 20.3779H95.7709Z" fill="black"/>
<path d="M51.1897 11.471C51.0658 10.9414 50.8404 10.4569 50.525 10.0401C50.2041 9.61759 49.7364 9.27385 49.1053 9.00326C48.4742 8.73267 47.7983 8.59758 47.0433 8.59758C45.68 8.51884 43.4601 9.03684 42.7954 10.102V8.88495H39.6234V21.7866H43.0376V15.9443C43.0376 14.5022 43.1163 13.5218 43.291 12.981C43.4601 12.4458 43.7866 12.0233 44.2487 11.6852C44.7275 11.3698 45.2627 11.2064 45.8486 11.2064C46.2995 11.2064 46.6936 11.3191 47.0317 11.5445C47.3527 11.7699 47.5953 12.0853 47.736 12.5022C47.8823 12.8967 47.9614 13.798 47.9614 15.1953V21.7758H51.37V13.77C51.37 12.7728 51.3024 12.0065 51.1785 11.4714M34.9303 8.64274C33.9162 8.77224 32.9586 9.58921 32.5357 10.1076V8.88495H29.3637V21.7866H32.7779V17.8033C32.7779 15.6062 32.8738 14.1637 33.0597 13.4766C33.2511 12.7891 33.5105 12.3159 33.8483 12.0513C34.1752 11.7807 34.5805 11.6568 35.0598 11.6568C35.539 11.6568 36.085 11.8371 36.6597 12.2088L37.7189 9.23428C36.9979 8.80621 36.254 8.59198 35.4654 8.59198C35.2852 8.59198 35.1049 8.60877 34.9303 8.63714M21.0146 8.59198C19.7468 8.59198 18.6032 8.87376 17.578 9.42574C16.564 9.9893 15.7638 10.7947 15.2119 11.8483C14.6483 12.9186 14.3669 14.0118 14.3669 15.1497C14.3669 16.6314 14.6487 17.8876 15.2119 18.9244C15.7638 19.9496 16.5808 20.7274 17.6572 21.2682C18.7276 21.8034 19.8543 22.0684 21.0374 22.0684C22.9531 22.0684 24.5303 21.4261 25.7925 20.1527C27.0547 18.8792 27.6798 17.2457 27.6798 15.2904C27.6798 13.3351 27.0599 11.7579 25.8093 10.4905C24.5698 9.22269 22.9699 8.59198 21.0206 8.59198M23.2736 18.2709C22.6653 18.9468 21.9215 19.2849 21.0314 19.2849C20.1413 19.2849 19.3974 18.9468 18.7779 18.2709C18.1752 17.595 17.8766 16.609 17.8766 15.33C17.8766 14.051 18.1752 13.0765 18.7779 12.389C19.3978 11.7132 20.1413 11.375 21.0314 11.375C21.9215 11.375 22.6653 11.7132 23.2736 12.389C23.8764 13.0649 24.175 14.0398 24.175 15.3076C24.175 16.5754 23.8764 17.5894 23.2736 18.2709ZM10.0451 4.24813C9.38036 4.06787 7.96066 3.97754 5.76315 3.97754H0V21.7806H3.59443V15.065H5.93822C7.57216 15.065 8.8116 14.9806 9.66774 14.8116C10.2989 14.6709 10.9184 14.3891 11.5271 13.9666C12.1358 13.5442 12.6538 12.9526 13.0483 12.2088C13.4428 11.465 13.6399 10.5469 13.6399 9.44812C13.6399 8.03961 13.3017 6.8789 12.6147 5.98319C11.9216 5.08189 11.0711 4.50713 10.051 4.23654M9.53265 10.885C9.26805 11.2795 8.89594 11.5725 8.41711 11.7583C7.93828 11.9442 6.99181 12.0401 5.5721 12.0401H3.60042V6.98642H5.34707C6.64288 6.98642 7.49941 7.03158 7.92748 7.11592C8.51343 7.21744 8.99786 7.48204 9.37557 7.90451C9.75288 8.32139 9.93913 8.86217 9.93913 9.50448C9.93913 10.0341 9.80963 10.4961 9.54464 10.8906" fill="black"/>
</svg>
