<svg width="583" height="153" viewBox="0 0 583 153" fill="none" xmlns="http://www.w3.org/2000/svg">
<mask id="mask0_211_2" style="mask-type:luminance" maskUnits="userSpaceOnUse" x="0" y="0" width="583" height="153">
<path d="M583 0H0.919983V152.39H583V0Z" fill="white"/>
</mask>
<g mask="url(#mask0_211_2)">
<path d="M570.945 0H421.036C419.793 0 418.59 0.458367 417.661 1.29489L411.743 6.61194C410.815 7.44273 409.617 7.90683 408.368 7.90683H73.3878C72.0413 7.90683 70.7522 7.36825 69.8011 6.41141L64.9252 1.49542C63.9798 0.538581 62.6906 0 61.3442 0H20.5438C19.2031 0 17.9139 0.532851 16.9686 1.48396L9.67479 8.80064C8.72941 9.74602 8.20229 11.0295 8.20229 12.3644V59.4158H7.93872L2.40395 64.9506C1.45283 65.9017 0.919983 67.1851 0.919983 68.5201V85.812C0.919983 87.1527 1.45283 88.4361 2.39822 89.3815L7.933 94.9163H8.19656V94.922C35.6012 94.922 57.8148 117.136 57.8148 144.54H108.092V144.804L114.194 150.906C115.139 151.851 116.423 152.384 117.763 152.384H563.118C564.459 152.384 565.742 151.851 566.688 150.906L571.312 146.282C572.257 145.337 572.79 144.053 572.79 142.713V89.6967C572.79 88.333 573.34 87.0267 574.32 86.0756L581.522 79.074C582.467 78.1286 583 76.8452 583 75.5045V12.055C583 10.7143 582.467 9.4309 581.522 8.48552L574.514 1.47823C573.569 0.532851 572.286 0 570.945 0Z" fill="#EAE620"/>
</g>
<path d="M153.648 103.369C148.614 106.494 142.711 108.316 136.375 108.316C118.495 108.316 104 93.9948 104 76.2015C104 58.4081 118.495 43.913 136.375 43.913C142.711 43.913 148.614 45.7357 153.648 48.9472V58.4081C149.134 54.3286 143.059 51.9851 136.375 51.9851C122.488 51.9851 111.551 62.7479 111.551 76.2015C111.551 89.5682 122.488 100.244 136.375 100.244C143.059 100.244 149.134 97.9875 153.648 93.9948V103.369Z" fill="black"/>
<path d="M171.962 99.7234H202.254V107.448H164.064V45.7357H171.962V99.7234Z" fill="black"/>
<path d="M236.279 44.2602C253.725 44.2602 267.786 58.7553 267.786 76.6355C267.786 94.4288 253.725 108.837 236.279 108.837C218.919 108.837 204.858 94.4288 204.858 76.6355C204.856 58.7553 218.917 44.2602 236.279 44.2602ZM236.279 100.765C249.732 100.765 260.495 90.0022 260.495 76.5487C260.495 63.0951 249.732 52.3323 236.279 52.3323C222.825 52.3323 212.149 63.0951 212.149 76.5487C212.149 90.0022 222.823 100.765 236.279 100.765Z" fill="black"/>
<path d="M277.331 107.448V42.2639L324.288 90.8702V45.7357H332.274V110.66L285.23 62.314V107.448H277.331Z" fill="black"/>
<path d="M352.064 53.3739L367.861 71.254H378.623V78.8922H350.501V99.7234H384.873V107.448H342.689V71.254H357.966L342.689 53.4606V45.7357H384.873V53.3739H352.064Z" fill="black"/>
<path d="M403.185 99.7234H433.477V107.448H395.286V45.7357H403.185V99.7234Z" fill="black"/>
<path d="M451.444 71.8616L469.758 45.7357H480L455.436 80.4545V107.448H447.625V80.4545L423.061 45.7357H433.216L451.444 71.8616Z" fill="black"/>
<path d="M547 76L514 95.0526L514 56.9474L547 76Z" fill="black"/>
</svg>
