<svg width="33" height="32" viewBox="0 0 33 32" fill="none" xmlns="http://www.w3.org/2000/svg">
<path d="M16.5 22.1849C20.0591 22.1849 22.9445 19.4042 22.9445 15.9741C22.9445 12.544 20.0591 9.76331 16.5 9.76331C12.9408 9.76331 10.0556 12.544 10.0556 15.9741C10.0556 19.4042 12.9408 22.1849 16.5 22.1849Z" stroke="white" stroke-width="3" stroke-linecap="round" stroke-linejoin="round"/>
<path d="M2 22.1851V9.76348C2 5.47583 5.6066 2 10.0556 2H22.9444C27.3934 2 31 5.47583 31 9.76348V22.1851C31 26.4727 27.3934 29.9485 22.9444 29.9485H10.0556C5.6066 29.9485 2 26.4727 2 22.1851Z" stroke="white" stroke-width="3"/>
<path d="M25.3611 7.45071L25.3774 7.43295" stroke="white" stroke-width="3" stroke-linecap="round" stroke-linejoin="round"/>
</svg>
