<svg width="170" height="31" viewBox="0 0 170 31" fill="none" xmlns="http://www.w3.org/2000/svg">
<path d="M22.4472 27.6273C20.1711 29.04 17.5025 29.8641 14.6378 29.8641C6.55363 29.8641 0 23.389 0 15.3441C0 7.29924 6.55363 0.745605 14.6378 0.745605C17.5025 0.745605 20.1711 1.56972 22.4472 3.02172V7.29924C20.4065 5.4548 17.6595 4.39523 14.6378 4.39523C8.35883 4.39523 3.41417 9.26141 3.41417 15.3441C3.41417 21.3876 8.35883 26.2145 14.6378 26.2145C17.6595 26.2145 20.4065 25.1942 22.4472 23.389V27.6273Z" fill="black"/>
<path d="M30.7275 25.9792H44.4234V29.4718H27.1564V1.56982H30.7275V25.9792Z" fill="black"/>
<path d="M59.8068 0.902344C67.6947 0.902344 74.0521 7.45598 74.0521 15.5401C74.0521 23.585 67.6947 30.0994 59.8068 30.0994C51.9582 30.0994 45.6007 23.585 45.6007 15.5401C45.5997 7.45598 51.9571 0.902344 59.8068 0.902344ZM59.8068 26.4497C65.8895 26.4497 70.7557 21.5836 70.7557 15.5009C70.7557 9.41814 65.8895 4.55197 59.8068 4.55197C53.7241 4.55197 48.8972 9.41814 48.8972 15.5009C48.8972 21.5836 53.7231 26.4497 59.8068 26.4497Z" fill="black"/>
<path d="M78.3679 29.4717V0L99.5985 21.9763V1.56973H103.209V30.9237L81.939 9.06521V29.4717H78.3679Z" fill="black"/>
<path d="M112.156 5.02324L119.299 13.1074H124.165V16.5608H111.45V25.9792H126.99V29.4718H107.918V13.1074H114.825L107.918 5.06248V1.56982H126.99V5.02324H112.156Z" fill="black"/>
<path d="M135.27 25.9792H148.966V29.4718H131.699V1.56982H135.27V25.9792Z" fill="black"/>
<path d="M157.089 13.3821L165.369 1.56982H170L158.894 17.2672V29.4718H155.362V17.2672L144.256 1.56982H148.848L157.089 13.3821Z" fill="black"/>
</svg>
