<svg width="50" height="50" viewBox="0 0 50 50" fill="none" xmlns="http://www.w3.org/2000/svg">
<rect width="50" height="50" fill="#EAE620"/>
<path d="M19.8836 12.4658H16.0594C14.3697 12.4658 13 13.8355 13 15.5251V36.9406C13 38.6303 14.3697 40 16.0594 40H34.4155C36.1052 40 37.4749 38.6303 37.4749 36.9406V15.5251C37.4749 13.8355 36.1052 12.4658 34.4155 12.4658H30.5913" stroke="black" stroke-width="3" stroke-linecap="round"/>
<path d="M19.1187 16.137V13.2306C19.1187 12.8082 19.4611 12.4657 19.8835 12.4657C20.3059 12.4657 20.6548 12.1232 20.7271 11.707C20.9538 10.4033 21.8323 7.87671 25.2374 7.87671C28.6424 7.87671 29.5209 10.4033 29.7476 11.707C29.82 12.1232 30.1689 12.4657 30.5912 12.4657C31.0136 12.4657 31.3561 12.8082 31.3561 13.2306V16.137C31.3561 16.6439 30.9452 17.0548 30.4383 17.0548H20.0365C19.5296 17.0548 19.1187 16.6439 19.1187 16.137Z" stroke="black" stroke-width="3" stroke-linecap="round"/>
</svg>
