<?xml version="1.0" encoding="utf-8"?>
<!-- Generator: Adobe Illustrator 28.3.0, SVG Export Plug-In . SVG Version: 6.00 Build 0)  -->
<svg version="1.1" id="Layer_1" xmlns="http://www.w3.org/2000/svg" xmlns:xlink="http://www.w3.org/1999/xlink" x="0px" y="0px"
	 width="123px" height="151px" viewBox="0 0 123 151" style="enable-background:new 0 0 123 151;" xml:space="preserve">
<path d="M85.7,37c-0.4-0.4-0.7-0.6-1.2-1c-0.5,0.1-0.9,0.4-1.2,0.6c-1.1,1.4-0.1,3.8,2.1,5.8c2.2,1.9,5,2.3,6.1,1
	c0.1-0.1,0.1-0.2,0.2-0.4C89.9,40.9,87.9,39,85.7,37z"/>
<path d="M75,28.8c-0.2,0.1-0.4,0.2-0.5,0.5c-1.1,1.4-0.1,3.8,2.1,5.8c2.2,1.9,5,2.3,6.1,1c0.4-0.4,0.5-0.9,0.4-1.5
	C80.5,32.5,77.7,30.6,75,28.8z"/>
<path d="M98.3,25.7c3.2,3.2,5.7,6.7,7.6,10.1c1,0,2,0,3,0c-1.9-4.2-4.8-8.3-8.6-12.1c-4.1-4-8.6-6.9-13-8.8v3
	C91.1,19.7,94.9,22.3,98.3,25.7z"/>
<path d="M93.9,30.2c1.9,1.9,3.5,3.8,4.7,5.8c1.1,0,2.1,0,3.2,0c-1.5-2.6-3.5-5.2-6-7.7c-2.7-2.7-5.6-4.8-8.6-6.4V25
	C89.5,26.4,91.9,28.1,93.9,30.2z"/>
<path d="M10.5,107.2C7.3,103.9,4.8,100.5,3,97c-1,0-2,0-3,0c1.9,4.2,4.8,8.3,8.6,12.1c4,4,8.4,7,12.9,8.9v-3
	C17.7,113.3,14,110.6,10.5,107.2z"/>
<path d="M15,102.8c-1.9-1.9-3.5-3.8-4.7-5.8c-1.1,0-2.1,0-3.2,0c1.5,2.6,3.5,5.2,6,7.7c2.7,2.7,5.6,4.8,8.6,6.4V108
	C19.3,106.7,17.1,104.9,15,102.8z"/>
<path d="M119.8,87.8c-3.8-11.7-11-24-20.6-35.3c-2-2.8-4.2-5.7-6.6-8.4c1,2.3,1.1,4.3,0.1,5.6c-2.4,2.8-9.9,0.5-16.9-5.2
	c-6.9-5.8-10.7-12.7-8.3-15.4c1.1-1.4,3.3-1.5,6.1-0.7c-14-8.5-28-10.4-35.1-3.3c-9.7,9.6-2.7,32.1,15.4,50.3
	C71.8,92.9,93.9,99.9,103.8,91c4.2,11.5,4,20.9-0.6,25.4c-8.7,8.6-35,1.9-59.8-21.5c0.1-4.6-2.6-10.6-7.6-15.6
	c-7.3-7.3-16.7-9.8-21-5.6c-3.7,3.7-2.2,11.5,3.1,18.3c0,0,0.2,0.2,0.6,0.7c0.2,0.2,0.4,0.5,0.6,0.7c3.7,4.3,15.6,17.2,30.4,26.9
	c0.2,0.1,0.5,0.4,0.7,0.5c7.9,5.3,16.1,9.3,23.9,11.9c17,5.6,31.2,3.7,40.2-5.1C123.5,119,125.4,104.7,119.8,87.8z"/>
</svg>
