<?xml version="1.0" encoding="utf-8"?>
<!-- Generator: Adobe Illustrator 28.3.0, SVG Export Plug-In . SVG Version: 6.00 Build 0)  -->
<svg version="1.1" id="Layer_1" xmlns="http://www.w3.org/2000/svg" xmlns:xlink="http://www.w3.org/1999/xlink" x="0px" y="0px"
	 width="116px" height="151px" viewBox="0 0 116 151" style="enable-background:new 0 0 116 151;" xml:space="preserve">
<path d="M113.4,28H2.6C1.2,28,0,29.2,0,30.6v89.7c0,1.5,1.2,2.6,2.6,2.6h110.7c1.5,0,2.6-1.2,2.6-2.6V30.6
	C116,29.2,114.8,28,113.4,28z M110.7,33.3v10.6h-6.5l-7-10.6H110.7z M90.9,33.3l7,10.6h-9.5l-7-10.6H90.9z M27.6,59.7h-9.5l7-10.6
	h9.5L27.6,59.7z M40.9,49.1h9.5l-7,10.6h-9.5L40.9,49.1z M56.8,49.1h9.5l-7,10.6h-9.5L56.8,49.1z M72.6,49.1h9.5l-7,10.6h-9.5
	L72.6,49.1z M88.4,49.1h9.5l-7,10.6h-9.5L88.4,49.1z M75.1,33.3l7,10.6h-9.5l-7-10.6H75.1z M59.2,33.3l7,10.6h-9.5l-7-10.6H59.2z
	 M43.4,33.3l7,10.6h-9.5l-7-10.6H43.4z M27.6,33.3l7,10.6h-9.5l-7-10.6H27.6z M5.3,33.3h6.5l7,10.6H5.3V33.3z M5.3,49.1h13.6
	l-7,10.6H5.3V49.1z M105.5,109.8H10.5v-5.3h94.9V109.8z M97.2,59.7l7-10.6h6.5v10.6H97.2z"/>
</svg>
