<svg width="19" height="369" viewBox="0 0 19 369" fill="none" xmlns="http://www.w3.org/2000/svg">
<path d="M64 363.488H0V369H64V363.488Z" fill="#585857"/>
<path d="M64 357.976H0V360.732H64V357.976Z" fill="#585857"/>
<path d="M64 349.718H0V352.474H64V349.718Z" fill="#585857"/>
<path d="M64 333.201H0V338.713H64V333.201Z" fill="#585857"/>
<path d="M64 324.934H0V327.69H64V324.934Z" fill="#585857"/>
<path d="M64 313.919H0V322.178H64V313.919Z" fill="#585857"/>
<path d="M64 305.661H0V308.417H64V305.661Z" fill="#585857"/>
<path d="M64 294.647H0V300.159H64V294.647Z" fill="#585857"/>
<path d="M64 280.877H0V289.135H64V280.877Z" fill="#585857"/>
<path d="M64 275.374H0V278.13H64V275.374Z" fill="#585857"/>
<path d="M64 261.604H0V269.863H64V261.604Z" fill="#585857"/>
<path d="M37.3841 250.59H0V256.102H37.3841V250.59Z" fill="#585857"/>
<path d="M37.3841 245.078H0V247.834H37.3841V245.078Z" fill="#585857"/>
<path d="M37.3841 234.064H0V242.322H37.3841V234.064Z" fill="#585857"/>
<path d="M37.3841 220.294H0V231.308H37.3841V220.294Z" fill="#585857"/>
<path d="M37.3841 212.036H0V217.547H37.3841V212.036Z" fill="#585857"/>
<path d="M37.3841 201.021H0V203.777H37.3841V201.021Z" fill="#585857"/>
<path d="M37.3841 190.007H0V192.763H37.3841V190.007Z" fill="#585857"/>
<path d="M37.3841 178.993H0V187.251H37.3841V178.993Z" fill="#585857"/>
<path d="M37.3841 165.223H0V170.735H37.3841V165.223Z" fill="#585857"/>
<path d="M37.3841 159.711H0V162.467H37.3841V159.711Z" fill="#585857"/>
<path d="M37.3841 148.697H0V156.955H37.3841V148.697Z" fill="#585857"/>
<path d="M37.3841 140.438H0V143.194H37.3841V140.438Z" fill="#585857"/>
<path d="M37.3841 129.424H0V134.936H37.3841V129.424Z" fill="#585857"/>
<path d="M37.3841 121.166H0V126.678H37.3841V121.166Z" fill="#585857"/>
<path d="M37.3841 110.152H0V118.41H37.3841V110.152Z" fill="#585857"/>
<path d="M37.3841 99.1375H0V107.396H37.3841V99.1375Z" fill="#585857"/>
<path d="M37.3841 88.1138H0V96.3721H37.3841V88.1138Z" fill="#585857"/>
<path d="M37.3841 74.353H0V79.8649H37.3841V74.353Z" fill="#585857"/>
<path d="M37.3841 68.8413H0V71.5972H37.3841V68.8413Z" fill="#585857"/>
<path d="M37.3841 57.827H0V66.0853H37.3841V57.827Z" fill="#585857"/>
<path d="M37.3841 46.8127H0V52.3246H37.3841V46.8127Z" fill="#585857"/>
<path d="M37.3841 41.3104H0V44.0663H37.3841V41.3104Z" fill="#585857"/>
<path d="M64 30.2867H0V35.7986H64V30.2867Z" fill="#585857"/>
<path d="M64 13.7701H0V22.0284H64V13.7701Z" fill="#585857"/>
<path d="M64 8.2583H0V11.0142H64V8.2583Z" fill="#585857"/>
<path d="M64 0H0V5.51184H64V0Z" fill="#585857"/>
</svg>
