<?xml version="1.0" encoding="utf-8"?>
<!-- Generator: Adobe Illustrator 28.3.0, SVG Export Plug-In . SVG Version: 6.00 Build 0)  -->
<svg version="1.1" id="Layer_1" xmlns="http://www.w3.org/2000/svg" xmlns:xlink="http://www.w3.org/1999/xlink" x="0px" y="0px"
	 width="323px" height="64px" viewBox="0 0 323 64" style="enable-background:new 0 0 323 64;" xml:space="preserve">
<style type="text/css">
	.st0{fill:#76A9FA;}
</style>
<path class="st0" d="M317.1,0h-62.3c-0.5,0-1,0.2-1.4,0.5l-2.5,2.2c-0.4,0.3-0.9,0.5-1.4,0.5H30.1c-0.6,0-1.1-0.2-1.5-0.6l-2-2
	C26.2,0.2,25.7,0,25.1,0h-17C7.6,0,7.1,0.2,6.7,0.6l-3,3C3.2,4.1,3,4.6,3,5.1v19.6H2.9L0.6,27C0.2,27.4,0,27.9,0,28.5v7.2
	c0,0.6,0.2,1.1,0.6,1.5l2.3,2.3H3v0c11.4,0,20.6,9.2,20.6,20.6h20.9v0.1l2.5,2.5c0.4,0.4,0.9,0.6,1.5,0.6h265.2
	c0.6,0,1.1-0.2,1.5-0.6l1.9-1.9c0.4-0.4,0.6-0.9,0.6-1.5v-22c0-0.6,0.2-1.1,0.6-1.5l3-2.9c0.4-0.4,0.6-0.9,0.6-1.5V5
	c0-0.6-0.2-1.1-0.6-1.5l-2.9-2.9C318.2,0.2,317.6,0,317.1,0z"/>
</svg>
