<?xml version="1.0" encoding="utf-8"?>
<!-- Generator: Adobe Illustrator 28.3.0, SVG Export Plug-In . SVG Version: 6.00 Build 0)  -->
<svg version="1.1" id="Layer_1" xmlns="http://www.w3.org/2000/svg" xmlns:xlink="http://www.w3.org/1999/xlink" x="0px" y="0px"
	 width="50px" height="50px" viewBox="0 0 50 50" style="enable-background:new 0 0 50 50;" xml:space="preserve">
<style type="text/css">
	.st0{fill:#77AAFA;}
	.st1{fill:none;stroke:#000000;stroke-width:3;stroke-linecap:round;stroke-linejoin:round;}
</style>
<rect class="st0" width="50" height="50"/>
<path class="st1" d="M39.8,40h-19c-0.6,0-1.2-0.5-1.2-1.2v-19c0-0.6,0.5-1.2,1.2-1.2h19c0.6,0,1.2,0.5,1.2,1.2v19
	C41,39.5,40.5,40,39.8,40z"/>
<path class="st1" d="M31.3,18.7v-8.5c0-0.6-0.5-1.2-1.2-1.2h-19C10.5,9,10,9.5,10,10.2v19c0,0.6,0.5,1.2,1.2,1.2h8.5"/>
</svg>
