<?xml version="1.0" encoding="utf-8"?>
<!-- Generator: Adobe Illustrator 28.3.0, SVG Export Plug-In . SVG Version: 6.00 Build 0)  -->
<svg version="1.1" id="Layer_1" xmlns="http://www.w3.org/2000/svg" xmlns:xlink="http://www.w3.org/1999/xlink" x="0px" y="0px"
	 width="67px" height="67px" viewBox="0 0 67 67" style="enable-background:new 0 0 67 67;" xml:space="preserve">
<style type="text/css">
	.st0{fill:#76A9FA;}
</style>
<g>
	<g transform="scale(5.12,5.12)">
		<path class="st0" d="M6.5,1c0,0-0.1,0-0.1,0l-3.5,2v0.6l3.6-2.1l3.6,2.1V3.1l-3.5-2C6.6,1,6.6,1,6.5,1z M6.5,2.1L3.7,3.8V7
			c0,0.1,0.1,0.2,0.2,0.2h5.3c0.1,0,0.2-0.1,0.2-0.2V3.8L6.5,2.1z M1.7,4.4C1.4,4.4,1,4.6,1,5.1V8c0,0.7,0.2,0.9,0.5,1.2
			c0,0,1.4,1.8,1.7,2.2v0.5c0,0.1,0.1,0.2,0.2,0.2h1.9c0.1,0,0.2-0.1,0.2-0.2v-1c0-0.9-0.4-1.5-0.9-2L3.5,7.6C3,7.2,2.7,7.4,2.6,7.5
			c-0.2,0.2-0.2,0.6,0,0.8l1.1,1.2c0.1,0.1,0.1,0.2,0,0.3c0,0-0.1,0.1-0.1,0.1c0,0-0.1,0-0.1-0.1L2.5,8.7C1.7,8,2.2,7.3,2.5,7.3V5.1
			C2.5,4.6,2.1,4.4,1.7,4.4z M11.3,4.4c-0.4,0-0.7,0.2-0.7,0.7v2.2c0.2,0,0.7,0.7,0,1.4L9.6,9.8c0,0-0.1,0.1-0.1,0.1
			c-0.1,0-0.1,0-0.1-0.1c-0.1-0.1-0.1-0.2,0-0.3l1.2-1.2c0.2-0.2,0.2-0.6,0-0.8C10.4,7.4,10,7.2,9.6,7.6L8.4,8.8
			c-0.5,0.5-0.9,1.2-0.9,2v1c0,0.1,0.1,0.2,0.2,0.2h1.9c0.1,0,0.2-0.1,0.2-0.2v-0.5c0.2-0.3,1.7-2.2,1.7-2.2
			c0.3-0.3,0.5-0.5,0.5-1.2V5.1C12.1,4.6,11.7,4.4,11.3,4.4L11.3,4.4z"/>
	</g>
</g>
</svg>
