<?xml version="1.0" encoding="utf-8"?>
<!-- Generator: Adobe Illustrator 28.3.0, SVG Export Plug-In . SVG Version: 6.00 Build 0)  -->
<svg version="1.1" id="Layer_1" xmlns="http://www.w3.org/2000/svg" xmlns:xlink="http://www.w3.org/1999/xlink" x="0px" y="0px"
	 width="64px" height="64px" viewBox="0 0 64 64" style="enable-background:new 0 0 64 64;" xml:space="preserve">
<style type="text/css">
	.st0{fill:#76A9FA;}
</style>
<g>
	<g transform="scale(5.12,5.12)">
		<path class="st0" d="M6.2,0.8c0,0-0.1,0-0.1,0l-3.5,2v0.6l3.6-2.1l3.6,2.1V2.9l-3.5-2C6.3,0.8,6.3,0.8,6.2,0.8z M6.2,1.9L3.4,3.6
			v3.2c0,0.1,0.1,0.2,0.2,0.2h5.3C9,7.1,9.1,7,9.1,6.8V3.6L6.2,1.9z M1.5,4.2c-0.4,0-0.7,0.2-0.7,0.7v2.9C0.7,8.5,1,8.7,1.2,9
			c0,0,1.4,1.8,1.7,2.2v0.5c0,0.1,0.1,0.2,0.2,0.2h1.9c0.1,0,0.2-0.1,0.2-0.2v-1c0-0.9-0.4-1.5-0.9-2L3.2,7.4C2.8,7,2.4,7.2,2.4,7.3
			c-0.2,0.2-0.2,0.6,0,0.8l1.1,1.2c0.1,0.1,0.1,0.2,0,0.3c0,0-0.1,0.1-0.1,0.1c0,0-0.1,0-0.1-0.1L2.2,8.5c-0.7-0.7-0.2-1.4,0-1.4
			V4.9C2.2,4.4,1.8,4.2,1.5,4.2z M11,4.2c-0.4,0-0.7,0.2-0.7,0.7v2.2c0.2,0,0.7,0.7,0,1.4L9.3,9.6c0,0-0.1,0.1-0.1,0.1
			C9.1,9.7,9,9.7,9,9.6C8.9,9.6,8.9,9.4,9,9.3l1.2-1.2c0.2-0.2,0.2-0.6,0-0.8C10.1,7.2,9.7,7,9.3,7.4L8.2,8.6
			c-0.5,0.5-0.9,1.2-0.9,2v1c0,0.1,0.1,0.2,0.2,0.2h1.9c0.1,0,0.2-0.1,0.2-0.2v-0.5C9.9,10.8,11.3,9,11.3,9c0.3-0.3,0.5-0.5,0.5-1.2
			V4.9C11.8,4.4,11.4,4.2,11,4.2L11,4.2z"/>
	</g>
</g>
</svg>
