<?xml version="1.0" encoding="utf-8"?>
<!-- Generator: Adobe Illustrator 28.3.0, SVG Export Plug-In . SVG Version: 6.00 Build 0)  -->
<svg version="1.1" id="Layer_1" xmlns="http://www.w3.org/2000/svg" xmlns:xlink="http://www.w3.org/1999/xlink" x="0px" y="0px"
	 width="67px" height="78px" viewBox="0 0 67 78" style="enable-background:new 0 0 67 78;" xml:space="preserve">
<style type="text/css">
	.st0{fill:#76A9FA;}
</style>
<g>
	<g transform="scale(5.12,5.12)">
		<path class="st0" d="M6.4,2.2c0,0-0.1,0-0.1,0l-3.5,2v0.6l3.6-2.1L10,4.8V4.3l-3.5-2C6.5,2.2,6.5,2.2,6.4,2.2z M6.4,3.3L3.6,5v3.2
			c0,0.1,0.1,0.2,0.2,0.2h5.3c0.1,0,0.2-0.1,0.2-0.2V5L6.4,3.3z M1.6,5.6c-0.4,0-0.7,0.2-0.7,0.7v2.9c0,0.7,0.2,0.9,0.5,1.2
			c0,0,1.4,1.8,1.7,2.2V13c0,0.1,0.1,0.2,0.2,0.2h1.9c0.1,0,0.2-0.1,0.2-0.2v-1c0-0.9-0.4-1.5-0.9-2L3.4,8.8C3,8.3,2.6,8.6,2.5,8.7
			c-0.2,0.2-0.2,0.6,0,0.8l1.1,1.2c0.1,0.1,0.1,0.2,0,0.3c0,0-0.1,0.1-0.1,0.1c0,0-0.1,0-0.1-0.1L2.4,9.9c-0.7-0.7-0.2-1.4,0-1.4
			V6.3C2.4,5.8,2,5.6,1.6,5.6z M11.2,5.6c-0.4,0-0.7,0.2-0.7,0.7v2.2c0.2,0,0.7,0.7,0,1.4L9.5,11c0,0-0.1,0.1-0.1,0.1
			c-0.1,0-0.1,0-0.1-0.1c-0.1-0.1-0.1-0.2,0-0.3l1.2-1.2c0.2-0.2,0.2-0.6,0-0.8c-0.1-0.1-0.4-0.4-0.8,0.1L8.3,10
			c-0.5,0.5-0.9,1.2-0.9,2v1c0,0.1,0.1,0.2,0.2,0.2h1.9c0.1,0,0.2-0.1,0.2-0.2v-0.5c0.2-0.3,1.7-2.2,1.7-2.2
			c0.3-0.3,0.5-0.5,0.5-1.2V6.3C12,5.8,11.6,5.6,11.2,5.6L11.2,5.6z"/>
	</g>
</g>
</svg>
