<?xml version="1.0" encoding="utf-8"?>
<!-- Generator: Adobe Illustrator 28.3.0, SVG Export Plug-In . SVG Version: 6.00 Build 0)  -->
<svg version="1.1" id="Layer_1" xmlns="http://www.w3.org/2000/svg" xmlns:xlink="http://www.w3.org/1999/xlink" x="0px" y="0px"
	 width="41px" height="81px" viewBox="0 0 41 81" style="enable-background:new 0 0 41 81;" xml:space="preserve">
<style type="text/css">
	.st0{fill:#76A9FA;}
</style>
<g id="SVGRepo_iconCarrier">
	<g>
		<g>
			<path class="st0" d="M32.3,20.5v-2.8c0-0.3-0.2-0.5-0.5-0.5h-13c-0.3,0-0.5,0.2-0.5,0.5V20c0,0.3-0.2,0.5-0.5,0.5H9.2
				c-0.3,0-0.5,0.2-0.5,0.5v40.4H1.1c-0.3,0-0.5,0.2-0.5,0.5v1.3c0,0.3,0.2,0.5,0.5,0.5h38.7c0.3,0,0.5-0.2,0.5-0.5V62
				c0-0.3-0.2-0.5-0.5-0.5h-7.5V23.2V20.5z M14,49.4c0,0.3-0.2,0.5-0.5,0.5H12c-0.3,0-0.5-0.2-0.5-0.5v-1.5c0-0.3,0.2-0.5,0.5-0.5
				h1.5c0.3,0,0.5,0.2,0.5,0.5V49.4z M14,44.8c0,0.3-0.2,0.5-0.5,0.5H12c-0.3,0-0.5-0.2-0.5-0.5v-1.5c0-0.3,0.2-0.5,0.5-0.5h1.5
				c0.3,0,0.5,0.2,0.5,0.5V44.8z M14,40.3c0,0.3-0.2,0.5-0.5,0.5H12c-0.3,0-0.5-0.2-0.5-0.5v-1.5c0-0.3,0.2-0.5,0.5-0.5h1.5
				c0.3,0,0.5,0.2,0.5,0.5V40.3z M14,35.8c0,0.3-0.2,0.5-0.5,0.5H12c-0.3,0-0.5-0.2-0.5-0.5v-1.5c0-0.3,0.2-0.5,0.5-0.5h1.5
				c0.3,0,0.5,0.2,0.5,0.5V35.8z M14,31.2c0,0.3-0.2,0.5-0.5,0.5H12c-0.3,0-0.5-0.2-0.5-0.5v-1.5c0-0.3,0.2-0.5,0.5-0.5h1.5
				c0.3,0,0.5,0.2,0.5,0.5V31.2z M14,26.7c0,0.3-0.2,0.5-0.5,0.5H12c-0.3,0-0.5-0.2-0.5-0.5v-1.5c0-0.3,0.2-0.5,0.5-0.5h1.5
				c0.3,0,0.5,0.2,0.5,0.5V26.7z M25.6,61.5H15.4v-5.6c0-0.3,0.2-0.5,0.5-0.5h9.1c0.3,0,0.5,0.2,0.5,0.5V61.5z M29.5,49.4
				c0,0.3-0.2,0.5-0.5,0.5H16.6c-0.3,0-0.5-0.2-0.5-0.5v-1.5c0-0.3,0.2-0.5,0.5-0.5H29c0.3,0,0.5,0.2,0.5,0.5V49.4L29.5,49.4z
				 M29.5,44.8c0,0.3-0.2,0.5-0.5,0.5H16.6c-0.3,0-0.5-0.2-0.5-0.5v-1.5c0-0.3,0.2-0.5,0.5-0.5H29c0.3,0,0.5,0.2,0.5,0.5V44.8
				L29.5,44.8z M29.5,40.3c0,0.3-0.2,0.5-0.5,0.5H16.6c-0.3,0-0.5-0.2-0.5-0.5v-1.5c0-0.3,0.2-0.5,0.5-0.5H29c0.3,0,0.5,0.2,0.5,0.5
				V40.3L29.5,40.3z M29.5,35.8c0,0.3-0.2,0.5-0.5,0.5H16.6c-0.3,0-0.5-0.2-0.5-0.5v-1.5c0-0.3,0.2-0.5,0.5-0.5H29
				c0.3,0,0.5,0.2,0.5,0.5V35.8L29.5,35.8z M29.5,31.2c0,0.3-0.2,0.5-0.5,0.5H16.6c-0.3,0-0.5-0.2-0.5-0.5v-1.5
				c0-0.3,0.2-0.5,0.5-0.5H29c0.3,0,0.5,0.2,0.5,0.5V31.2L29.5,31.2z M29.5,26.7c0,0.3-0.2,0.5-0.5,0.5H16.6c-0.3,0-0.5-0.2-0.5-0.5
				v-1.5c0-0.3,0.2-0.5,0.5-0.5H29c0.3,0,0.5,0.2,0.5,0.5V26.7L29.5,26.7z"/>
		</g>
	</g>
</g>
</svg>
