<?xml version="1.0" encoding="utf-8"?>
<!-- Generator: Adobe Illustrator 28.3.0, SVG Export Plug-In . SVG Version: 6.00 Build 0)  -->
<svg version="1.1" id="Layer_1" xmlns="http://www.w3.org/2000/svg" xmlns:xlink="http://www.w3.org/1999/xlink" x="0px" y="0px"
	 width="67px" height="67px" viewBox="0 0 67 67" style="enable-background:new 0 0 67 67;" xml:space="preserve">
<style type="text/css">
	.st0{fill:#76A9FA;}
</style>
<g>
	<g transform="scale(5.12,5.12)">
		<path class="st0" d="M6.4,1c0,0-0.1,0-0.1,0l-3.5,2v0.6l3.6-2.1L10,3.7V3.1l-3.5-2C6.5,1,6.5,1,6.4,1z M6.4,2.1L3.6,3.8V7
			c0,0.1,0.1,0.2,0.2,0.2h5.3c0.1,0,0.2-0.1,0.2-0.2V3.8L6.4,2.1z M1.6,4.4c-0.4,0-0.7,0.2-0.7,0.7V8c0,0.7,0.2,0.9,0.5,1.2
			c0,0,1.4,1.8,1.7,2.2v0.5c0,0.1,0.1,0.2,0.2,0.2h1.9c0.1,0,0.2-0.1,0.2-0.2v-1c0-0.9-0.4-1.5-0.9-2L3.4,7.6C3,7.2,2.6,7.4,2.5,7.5
			c-0.2,0.2-0.2,0.6,0,0.8l1.1,1.2c0.1,0.1,0.1,0.2,0,0.3c0,0-0.1,0.1-0.1,0.1c0,0-0.1,0-0.1-0.1L2.4,8.7C1.6,8,2.1,7.3,2.4,7.3V5.1
			C2.4,4.6,2,4.4,1.6,4.4z M11.2,4.4c-0.4,0-0.7,0.2-0.7,0.7v2.2c0.2,0,0.7,0.7,0,1.4L9.5,9.8c0,0-0.1,0.1-0.1,0.1
			c-0.1,0-0.1,0-0.1-0.1c-0.1-0.1-0.1-0.2,0-0.3l1.2-1.2c0.2-0.2,0.2-0.6,0-0.8c-0.1-0.1-0.4-0.4-0.8,0.1L8.3,8.8
			c-0.5,0.5-0.9,1.2-0.9,2v1c0,0.1,0.1,0.2,0.2,0.2h1.9c0.1,0,0.2-0.1,0.2-0.2v-0.5c0.2-0.3,1.7-2.2,1.7-2.2C11.7,8.9,12,8.7,12,8
			V5.1C12,4.6,11.6,4.4,11.2,4.4L11.2,4.4z"/>
	</g>
</g>
</svg>
