<svg width="33" height="32" viewBox="0 0 33 32" fill="none" xmlns="http://www.w3.org/2000/svg">
<path d="M16.5 22.1848C20.0591 22.1848 22.9445 19.404 22.9445 15.974C22.9445 12.5438 20.0591 9.76318 16.5 9.76318C12.9408 9.76318 10.0556 12.5438 10.0556 15.974C10.0556 19.404 12.9408 22.1848 16.5 22.1848Z" stroke="black" stroke-width="3" stroke-linecap="round" stroke-linejoin="round"/>
<path d="M2 22.1851V9.76348C2 5.47583 5.6066 2 10.0556 2H22.9444C27.3934 2 31 5.47583 31 9.76348V22.1851C31 26.4727 27.3934 29.9485 22.9444 29.9485H10.0556C5.6066 29.9485 2 26.4727 2 22.1851Z" stroke="black" stroke-width="3"/>
<path d="M25.3611 7.45086L25.3774 7.43311" stroke="black" stroke-width="3" stroke-linecap="round" stroke-linejoin="round"/>
</svg>
