<?xml version="1.0" encoding="utf-8"?>
<!-- Generator: Adobe Illustrator 28.3.0, SVG Export Plug-In . SVG Version: 6.00 Build 0)  -->
<svg version="1.1" id="Layer_1" xmlns="http://www.w3.org/2000/svg" xmlns:xlink="http://www.w3.org/1999/xlink" x="0px" y="0px"
	 width="100px" height="28px" viewBox="0 0 100 28" style="enable-background:new 0 0 100 28;" xml:space="preserve">
<style type="text/css">
	.st0{fill:#FFFFFF;}
</style>
<g>
	<path d="M96.1,21.5c0.3-0.1,0.4-0.2,0.4-0.4c0-0.3-0.2-0.4-0.6-0.4h-0.6v1.6h0.3v-0.7h0.3l0.4,0.7h0.3L96.1,21.5z M95.9,21.3h-0.3
		v-0.5H96c0.2,0,0.4,0,0.4,0.3C96.3,21.3,96.1,21.3,95.9,21.3L95.9,21.3z"/>
	<path d="M96,19.9c-0.8,0-1.5,0.6-1.5,1.5c0,0.8,0.6,1.5,1.5,1.5c0.8,0,1.5-0.6,1.5-1.5C97.4,20.5,96.8,19.9,96,19.9z M96,22.7
		c-0.7,0-1.3-0.6-1.3-1.3c0-0.8,0.6-1.3,1.3-1.3s1.3,0.6,1.3,1.3C97.2,22.1,96.7,22.7,96,22.7z M2.5,6.3h3.6v13h6.5v3.3H2.5V6.3z
		 M14.2,11.5h3.4v11h-3.4V11.5z M15.9,6c1.1,0,2,0.9,2,2s-0.9,2-2,2s-2-0.9-2-2S14.8,6,15.9,6 M31.9,6.3h3.5V16l3.8-4.5h4.2
		l-4.5,5.1l4.4,6H39l-3.6-5.4v5.4h-3.5V6.3z M19.5,11.5h3.3V13h0.1c0.4-0.9,1.6-1.8,3.3-1.8c3.5,0,4.1,2.3,4.1,5.2v6h-3.4V17
		c0-1.3,0-2.9-1.8-2.9s-2,1.4-2,2.8v5.5h-3.4L19.5,11.5L19.5,11.5z"/>
	<path d="M50.6,15.7c0-1.2-0.9-2.1-2.1-2.1c-1.5,0-2.3,1-2.4,2.1C46.1,15.8,50.6,15.8,50.6,15.7z M53.5,20.6
		c-1.1,1.4-2.9,2.2-4.7,2.2c-3.4,0-6.1-2.3-6.1-5.8s2.8-5.8,6.1-5.8c3.2,0,5.2,2.3,5.2,5.8v1.1h-8c0.3,1.3,1.3,2.1,2.6,2.1
		c1.1,0,1.9-0.6,2.4-1.3L53.5,20.6z M61.1,14.1c-1.7,0-2.8,1.2-2.8,2.8s1,2.8,2.8,2.8c1.7,0,2.8-1.2,2.8-2.8S62.8,14.1,61.1,14.1
		 M67,22.5h-3.1V21h-0.1c-0.5,0.8-1.9,1.7-3.4,1.7c-3.3,0-5.4-2.4-5.4-5.7c0-3.1,1.9-5.9,5.1-5.9c1.4,0,2.8,0.4,3.5,1.5h0.1V6.3H67
		V22.5z"/>
	<path d="M91.7,2.9H72.1c-1,0-1.7,0.8-1.7,1.7v19.7c0,0.9,0.8,1.7,1.7,1.7h19.6c1,0,1.7-0.8,1.7-1.7V4.5C93.5,3.6,92.7,2.9,91.7,2.9
		z"/>
	<g>
		<path class="st0" d="M73.8,11.5h3.4v11h-3.4V11.5z M75.5,6.1c1.1,0,2,0.9,2,2s-0.9,2-2,2s-2-0.9-2-2C73.6,6.9,74.4,6.1,75.5,6.1
			 M79.4,11.5h3.3V13h0.1c0.4-0.9,1.6-1.8,3.3-1.8c3.5,0,4.1,2.3,4.1,5.2v6h-3.4V17c0-1.3,0-2.9-1.8-2.9s-2,1.4-2,2.8v5.5h-3.4
			L79.4,11.5L79.4,11.5z"/>
	</g>
</g>
</svg>
