<?xml version="1.0" encoding="utf-8"?>
<!-- Generator: Adobe Illustrator 28.3.0, SVG Export Plug-In . SVG Version: 6.00 Build 0)  -->
<svg version="1.1" id="Layer_1" xmlns="http://www.w3.org/2000/svg" xmlns:xlink="http://www.w3.org/1999/xlink" x="0px" y="0px"
	 width="583px" height="153px" viewBox="0 0 583 153" style="enable-background:new 0 0 583 153;" xml:space="preserve">
<style type="text/css">
	.st0{fill:#FFFFFF;filter:url(#Adobe_OpacityMaskFilter);}
	.st1{mask:url(#mask0_211_2_00000148635599813387636970000005304456719420975272_);}
	.st2{fill:#76A9FA;}
</style>
<defs>
	<filter id="Adobe_OpacityMaskFilter" filterUnits="userSpaceOnUse" x="0.9" y="0" width="582.1" height="152.4">
		<feColorMatrix  type="matrix" values="1 0 0 0 0  0 1 0 0 0  0 0 1 0 0  0 0 0 1 0"/>
	</filter>
</defs>
<mask maskUnits="userSpaceOnUse" x="0.9" y="0" width="582.1" height="152.4" id="mask0_211_2_00000148635599813387636970000005304456719420975272_">
	<path class="st0" d="M583,0H0.9v152.4H583V0z"/>
</mask>
<g class="st1">
	<path class="st2" d="M570.9,0H421c-1.2,0-2.4,0.5-3.4,1.3l-5.9,5.3c-0.9,0.8-2.1,1.3-3.4,1.3h-335c-1.3,0-2.6-0.5-3.6-1.5l-4.9-4.9
		C64,0.5,62.7,0,61.3,0H20.5c-1.3,0-2.6,0.5-3.6,1.5L9.7,8.8C8.7,9.7,8.2,11,8.2,12.4v47.1H7.9L2.4,65c-1,1-1.5,2.2-1.5,3.6v17.3
		c0,1.3,0.5,2.6,1.5,3.6l5.5,5.5h0.3v0c27.4,0,49.6,22.2,49.6,49.6h50.3v0.3l6.1,6.1c0.9,0.9,2.2,1.5,3.6,1.5h445.4
		c1.3,0,2.6-0.5,3.6-1.5l4.6-4.6c0.9-0.9,1.5-2.2,1.5-3.6v-53c0-1.4,0.6-2.7,1.5-3.6l7.2-7c0.9-0.9,1.5-2.2,1.5-3.6V12.1
		c0-1.3-0.5-2.6-1.5-3.6l-7-7C573.6,0.5,572.3,0,570.9,0z"/>
</g>
<path d="M315,76.5l-33,19.1V57.4L315,76.5z"/>
</svg>
