<?xml version="1.0" encoding="utf-8"?>
<!-- Generator: Adobe Illustrator 28.3.0, SVG Export Plug-In . SVG Version: 6.00 Build 0)  -->
<svg version="1.1" id="Layer_1" xmlns="http://www.w3.org/2000/svg" xmlns:xlink="http://www.w3.org/1999/xlink" x="0px" y="0px"
	 width="170px" height="31px" viewBox="0 0 170 31" style="enable-background:new 0 0 170 31;" xml:space="preserve">
<g>
	<path d="M3.1,5.1h2v17.3h10.6v1.7H3.1V5.1z"/>
	<path d="M31.3,9.9v14.3h-1.8v-2.6c-1,1.7-2.8,2.7-5.1,2.7c-3.6,0-6-2-6-6.1V9.9h1.9v8.1c0,3,1.6,4.6,4.3,4.6c3,0,4.9-1.9,4.9-5.2
		V9.9H31.3z"/>
	<path d="M45.8,24.1l-4.5-6l-4.6,6h-2.2l5.6-7.3l-5.4-6.9H37l4.3,5.6l4.3-5.6h2.1l-5.4,6.9l5.7,7.3H45.8z"/>
	<path d="M66.5,11.7c0,4-2.9,6.5-7.8,6.5h-5.1v6h-2v-19h7.1C63.5,5.1,66.5,7.6,66.5,11.7z M64.5,11.7c0-3-2-4.8-5.8-4.8h-5v9.5h5
		C62.4,16.4,64.5,14.6,64.5,11.7z"/>
	<path d="M77.2,9.8v1.9c-0.2,0-0.3,0-0.5,0c-3,0-4.8,1.9-4.8,5.3v7.3H70V9.9h1.8v2.8C72.8,10.8,74.6,9.8,77.2,9.8z"/>
	<path d="M79.1,17c0-4.2,3.1-7.2,7.3-7.2s7.2,3,7.2,7.2s-3.1,7.3-7.2,7.3S79.1,21.2,79.1,17z M91.7,17c0-3.3-2.3-5.6-5.3-5.6
		c-3,0-5.3,2.2-5.3,5.6s2.3,5.6,5.3,5.6C89.4,22.6,91.7,20.3,91.7,17z"/>
	<path d="M112,17c0,4.3-3,7.3-7.1,7.3c-2.3,0-4.2-1-5.4-2.8v7.9h-1.9V9.9h1.8v2.8c1.2-1.9,3.1-2.9,5.5-2.9C109,9.8,112,12.7,112,17z
		 M110.1,17c0-3.3-2.3-5.6-5.3-5.6c-3,0-5.3,2.3-5.3,5.6c0,3.3,2.3,5.6,5.3,5.6C107.8,22.6,110.1,20.3,110.1,17z"/>
	<path d="M128.4,17.6h-11.9c0.2,3,2.5,5,5.6,5c1.7,0,3.3-0.6,4.4-1.9l1.1,1.2c-1.3,1.5-3.3,2.3-5.5,2.3c-4.4,0-7.5-3-7.5-7.3
		s3-7.2,7-7.2c4,0,6.9,3,6.9,7.2C128.4,17.2,128.4,17.4,128.4,17.6z M116.5,16.2h10.1c-0.2-2.8-2.3-4.7-5.1-4.7
		C118.7,11.4,116.7,13.4,116.5,16.2z"/>
	<path d="M139.5,9.8v1.9c-0.2,0-0.3,0-0.5,0c-3,0-4.8,1.9-4.8,5.3v7.3h-1.9V9.9h1.8v2.8C135.1,10.8,136.9,9.8,139.5,9.8z"/>
	<path d="M151.2,23.3c-0.8,0.7-1.9,1-3,1c-2.7,0-4.2-1.5-4.2-4.2v-8.6h-2.6V9.9h2.6V6.7h1.9v3.1h4.3v1.6h-4.3V20
		c0,1.7,0.9,2.6,2.5,2.6c0.8,0,1.6-0.2,2.1-0.7L151.2,23.3z"/>
	<path d="M166.4,9.9l-7.1,16c-1.2,2.8-2.7,3.7-4.7,3.7c-1.3,0-2.6-0.4-3.5-1.3l0.9-1.4c0.7,0.7,1.6,1.1,2.6,1.1c1.3,0,2.1-0.6,3-2.4
		l0.6-1.4l-6.4-14.2h2l5.4,12.1l5.4-12.1H166.4z"/>
</g>
</svg>
