<?xml version="1.0" encoding="utf-8"?>
<!-- Generator: Adobe Illustrator 28.3.0, SVG Export Plug-In . SVG Version: 6.00 Build 0)  -->
<svg version="1.1" id="Layer_1" xmlns="http://www.w3.org/2000/svg" xmlns:xlink="http://www.w3.org/1999/xlink" x="0px" y="0px"
	 width="170px" height="31px" viewBox="0 0 170 31" style="enable-background:new 0 0 170 31;" xml:space="preserve">
<style type="text/css">
	.st0{fill:#FFFFFF;}
</style>
<g>
	<path class="st0" d="M3.4,3.3h2v17.3H16v1.7H3.4V3.3z"/>
	<path class="st0" d="M31.6,8v14.3h-1.8v-2.6c-1,1.7-2.8,2.7-5.1,2.7c-3.6,0-6-2-6-6.1V8h1.9v8.1c0,3,1.6,4.6,4.3,4.6
		c3,0,4.9-1.9,4.9-5.2V8H31.6z"/>
	<path class="st0" d="M46.1,22.3l-4.5-6l-4.6,6h-2.2l5.6-7.3L35.1,8h2.2l4.3,5.6L45.8,8h2.1L42.6,15l5.7,7.3H46.1z"/>
	<path class="st0" d="M66.7,9.8c0,4-2.9,6.5-7.8,6.5h-5.1v6h-2v-19H59C63.8,3.3,66.7,5.7,66.7,9.8z M64.7,9.8c0-3-2-4.8-5.8-4.8h-5
		v9.5h5C62.7,14.5,64.7,12.8,64.7,9.8z"/>
	<path class="st0" d="M77.5,7.9v1.9c-0.2,0-0.3,0-0.5,0c-3,0-4.8,1.9-4.8,5.3v7.3h-1.9V8h1.8v2.8C73.1,8.9,74.9,7.9,77.5,7.9z"/>
	<path class="st0" d="M79.4,15.2c0-4.2,3.1-7.2,7.3-7.2s7.2,3,7.2,7.2s-3.1,7.3-7.2,7.3S79.4,19.4,79.4,15.2z M92,15.2
		c0-3.3-2.3-5.6-5.3-5.6c-3,0-5.3,2.2-5.3,5.6s2.3,5.6,5.3,5.6C89.7,20.7,92,18.5,92,15.2z"/>
	<path class="st0" d="M112.3,15.2c0,4.3-3,7.3-7.1,7.3c-2.3,0-4.2-1-5.4-2.8v7.9h-1.9V8h1.8v2.8c1.2-1.9,3.1-2.9,5.5-2.9
		C109.3,7.9,112.3,10.8,112.3,15.2z M110.4,15.2c0-3.3-2.3-5.6-5.3-5.6c-3,0-5.3,2.3-5.3,5.6c0,3.3,2.3,5.6,5.3,5.6
		C108.1,20.7,110.4,18.5,110.4,15.2z"/>
	<path class="st0" d="M128.7,15.8h-11.9c0.2,3,2.5,5,5.6,5c1.7,0,3.3-0.6,4.4-1.9l1.1,1.2c-1.3,1.5-3.3,2.3-5.5,2.3
		c-4.4,0-7.5-3-7.5-7.3s3-7.2,7-7.2c4,0,6.9,3,6.9,7.2C128.7,15.3,128.7,15.5,128.7,15.8z M116.7,14.3h10.1
		c-0.2-2.8-2.3-4.7-5.1-4.7C119,9.6,117,11.5,116.7,14.3z"/>
	<path class="st0" d="M139.8,7.9v1.9c-0.2,0-0.3,0-0.5,0c-3,0-4.8,1.9-4.8,5.3v7.3h-1.9V8h1.8v2.8C135.4,8.9,137.2,7.9,139.8,7.9z"
		/>
	<path class="st0" d="M151.4,21.4c-0.8,0.7-1.9,1-3,1c-2.7,0-4.2-1.5-4.2-4.2V9.7h-2.6V8h2.6V4.9h1.9V8h4.3v1.6h-4.3v8.5
		c0,1.7,0.9,2.6,2.5,2.6c0.8,0,1.6-0.2,2.1-0.7L151.4,21.4z"/>
	<path class="st0" d="M166.6,8l-7.1,16c-1.2,2.8-2.7,3.7-4.7,3.7c-1.3,0-2.6-0.4-3.5-1.3l0.9-1.4c0.7,0.7,1.6,1.1,2.6,1.1
		c1.3,0,2.1-0.6,3-2.4l0.6-1.4L152,8h2l5.4,12.1L164.7,8H166.6z"/>
</g>
</svg>
