<?xml version="1.0" encoding="utf-8"?>
<!-- Generator: Adobe Illustrator 28.3.0, SVG Export Plug-In . SVG Version: 6.00 Build 0)  -->
<svg version="1.1" id="Layer_1" xmlns="http://www.w3.org/2000/svg" xmlns:xlink="http://www.w3.org/1999/xlink" x="0px" y="0px"
	 width="50px" height="50px" viewBox="0 0 50 50" style="enable-background:new 0 0 50 50;" xml:space="preserve">
<style type="text/css">
	.st0{fill:#77AAFA;}
	.st1{fill:none;stroke:#000000;stroke-width:3;stroke-linecap:round;}
</style>
<rect class="st0" width="50" height="50"/>
<path class="st1" d="M19.9,12.5h-3.8c-1.7,0-3.1,1.4-3.1,3.1v21.4c0,1.7,1.4,3.1,3.1,3.1h18.4c1.7,0,3.1-1.4,3.1-3.1V15.5
	c0-1.7-1.4-3.1-3.1-3.1h-3.8"/>
<path class="st1" d="M19.1,16.1v-2.9c0-0.4,0.3-0.8,0.8-0.8c0.4,0,0.8-0.3,0.8-0.8c0.2-1.3,1.1-3.8,4.5-3.8c3.4,0,4.3,2.5,4.5,3.8
	c0.1,0.4,0.4,0.8,0.8,0.8c0.4,0,0.8,0.3,0.8,0.8v2.9c0,0.5-0.4,0.9-0.9,0.9H20C19.5,17.1,19.1,16.6,19.1,16.1z"/>
</svg>
