<?xml version="1.0" encoding="utf-8"?>
<!-- Generator: Adobe Illustrator 28.3.0, SVG Export Plug-In . SVG Version: 6.00 Build 0)  -->
<svg version="1.1" id="Layer_1" xmlns="http://www.w3.org/2000/svg" xmlns:xlink="http://www.w3.org/1999/xlink" x="0px" y="0px"
	 width="100px" height="28px" viewBox="0 0 100 28" style="enable-background:new 0 0 100 28;" xml:space="preserve">
<style type="text/css">
	.st0{fill:#FFFFFF;}
	.st1{fill:#006192;}
</style>
<g>
	<path d="M98.1,21.1c0.3-0.1,0.4-0.2,0.4-0.4c0-0.3-0.2-0.4-0.6-0.4h-0.6v1.6h0.3v-0.7h0.3l0.4,0.7h0.3L98.1,21.1z M97.9,20.9h-0.3
		v-0.5H98c0.2,0,0.4,0,0.4,0.3C98.3,20.9,98.1,20.9,97.9,20.9L97.9,20.9z"/>
	<path class="st0" d="M98,19.5c-0.8,0-1.5,0.6-1.5,1.5c0,0.8,0.6,1.5,1.5,1.5c0.8,0,1.5-0.6,1.5-1.5C99.4,20.1,98.8,19.5,98,19.5z
		 M98,22.3c-0.7,0-1.3-0.6-1.3-1.3c0-0.8,0.6-1.3,1.3-1.3s1.3,0.6,1.3,1.3C99.2,21.7,98.7,22.3,98,22.3z M4.5,5.9h3.6v13h6.5v3.3
		H4.5V5.9z M16.2,11.1h3.4v11h-3.4V11.1z M17.9,5.6c1.1,0,2,0.9,2,2s-0.9,2-2,2c-1.1,0-2-0.9-2-2S16.8,5.6,17.9,5.6 M33.9,5.9h3.5
		v9.7l3.8-4.5h4.2l-4.5,5.1l4.4,6H41l-3.6-5.4v5.4h-3.5L33.9,5.9z M21.5,11.1h3.3v1.5h0.1c0.4-0.9,1.6-1.8,3.3-1.8
		c3.5,0,4.1,2.3,4.1,5.2v6h-3.4v-5.4c0-1.3,0-2.9-1.8-2.9s-2,1.4-2,2.8V22h-3.4L21.5,11.1L21.5,11.1z"/>
	<path class="st0" d="M52.6,15.3c0-1.2-0.9-2.1-2.1-2.1c-1.5,0-2.3,1-2.4,2.1H52.6z M55.5,20.2c-1.1,1.4-2.9,2.2-4.7,2.2
		c-3.4,0-6.1-2.3-6.1-5.8s2.8-5.8,6.1-5.8c3.2,0,5.2,2.3,5.2,5.8v1.1H48c0.3,1.3,1.3,2.1,2.6,2.1c1.1,0,1.9-0.6,2.4-1.3L55.5,20.2z
		 M63.1,13.7c-1.7,0-2.8,1.2-2.8,2.8s1,2.8,2.8,2.8c1.7,0,2.8-1.2,2.8-2.8S64.8,13.7,63.1,13.7 M69,22.1h-3.1v-1.5h-0.1
		c-0.5,0.8-1.9,1.7-3.4,1.7c-3.3,0-5.4-2.4-5.4-5.7c0-3.1,1.9-5.9,5.1-5.9c1.4,0,2.8,0.4,3.5,1.5h0.1V5.9H69V22.1z"/>
	<path class="st1" d="M93.7,2.5H74.1c-1,0-1.7,0.8-1.7,1.7v19.7c0,0.9,0.8,1.7,1.7,1.7h19.6c1,0,1.7-0.8,1.7-1.7V4.1
		C95.5,3.2,94.7,2.5,93.7,2.5z"/>
	<g>
		<path class="st0" d="M75.8,11.1h3.4v11h-3.4V11.1z M77.5,5.7c1.1,0,2,0.9,2,2s-0.9,2-2,2c-1.1,0-2-0.9-2-2
			C75.6,6.5,76.4,5.7,77.5,5.7 M81.4,11.1h3.3v1.5h0.1c0.4-0.9,1.6-1.8,3.3-1.8c3.5,0,4.1,2.3,4.1,5.2v6h-3.4v-5.4
			c0-1.3,0-2.9-1.8-2.9c-1.8,0-2,1.4-2,2.8V22h-3.4L81.4,11.1L81.4,11.1z"/>
	</g>
</g>
</svg>
