<?xml version="1.0" encoding="utf-8"?>
<!-- Generator: Adobe Illustrator 28.3.0, SVG Export Plug-In . SVG Version: 6.00 Build 0)  -->
<svg version="1.1" id="Layer_1" xmlns="http://www.w3.org/2000/svg" xmlns:xlink="http://www.w3.org/1999/xlink" x="0px" y="0px"
	 width="123px" height="151px" viewBox="0 0 123 151" style="enable-background:new 0 0 123 151;" xml:space="preserve">
<g id="SVGRepo_iconCarrier">
	<g>
		<g>
			<path d="M94.3,20.2v-7.7c0-0.8-0.6-1.4-1.4-1.4H56.8c-0.8,0-1.4,0.6-1.4,1.4v6.3c0,0.8-0.6,1.4-1.4,1.4h-24
				c-0.8,0-1.4,0.6-1.4,1.4v112H7.9c-0.8,0-1.4,0.6-1.4,1.4v3.6c0,0.8,0.6,1.4,1.4,1.4h107.2c0.8,0,1.4-0.6,1.4-1.4v-3.6
				c0-0.8-0.6-1.4-1.4-1.4H94.3v-106V20.2z M43.4,100.1c0,0.8-0.6,1.4-1.4,1.4h-4.1c-0.8,0-1.4-0.6-1.4-1.4v-4.3
				c0-0.8,0.6-1.4,1.4-1.4H42c0.8,0,1.4,0.6,1.4,1.4V100.1z M43.4,87.5c0,0.8-0.6,1.4-1.4,1.4h-4.1c-0.8,0-1.4-0.6-1.4-1.4v-4.3
				c0-0.8,0.6-1.4,1.4-1.4H42c0.8,0,1.4,0.6,1.4,1.4V87.5z M43.4,75c0,0.8-0.6,1.4-1.4,1.4h-4.1c-0.8,0-1.4-0.6-1.4-1.4v-4.3
				c0-0.8,0.6-1.4,1.4-1.4H42c0.8,0,1.4,0.6,1.4,1.4V75z M43.4,62.4c0,0.8-0.6,1.4-1.4,1.4h-4.1c-0.8,0-1.4-0.6-1.4-1.4v-4.3
				c0-0.8,0.6-1.4,1.4-1.4H42c0.8,0,1.4,0.6,1.4,1.4V62.4z M43.4,49.8c0,0.8-0.6,1.4-1.4,1.4h-4.1c-0.8,0-1.4-0.6-1.4-1.4v-4.3
				c0-0.8,0.6-1.4,1.4-1.4H42c0.8,0,1.4,0.6,1.4,1.4V49.8z M43.4,37.2c0,0.8-0.6,1.4-1.4,1.4h-4.1c-0.8,0-1.4-0.6-1.4-1.4V33
				c0-0.8,0.6-1.4,1.4-1.4H42c0.8,0,1.4,0.6,1.4,1.4V37.2z M75.5,133.6h-28V118c0-0.8,0.6-1.4,1.4-1.4h25.3c0.8,0,1.4,0.6,1.4,1.4
				V133.6z M86.5,100.1c0,0.8-0.6,1.4-1.4,1.4H50.8c-0.8,0-1.4-0.6-1.4-1.4v-4.3c0-0.8,0.6-1.4,1.4-1.4h34.3c0.8,0,1.4,0.6,1.4,1.4
				V100.1L86.5,100.1z M86.5,87.5c0,0.8-0.6,1.4-1.4,1.4H50.8c-0.8,0-1.4-0.6-1.4-1.4v-4.3c0-0.8,0.6-1.4,1.4-1.4h34.3
				c0.8,0,1.4,0.6,1.4,1.4V87.5L86.5,87.5z M86.5,75c0,0.8-0.6,1.4-1.4,1.4H50.8c-0.8,0-1.4-0.6-1.4-1.4v-4.3c0-0.8,0.6-1.4,1.4-1.4
				h34.3c0.8,0,1.4,0.6,1.4,1.4V75L86.5,75z M86.5,62.4c0,0.8-0.6,1.4-1.4,1.4H50.8c-0.8,0-1.4-0.6-1.4-1.4v-4.3
				c0-0.8,0.6-1.4,1.4-1.4h34.3c0.8,0,1.4,0.6,1.4,1.4V62.4L86.5,62.4z M86.5,49.8c0,0.8-0.6,1.4-1.4,1.4H50.8
				c-0.8,0-1.4-0.6-1.4-1.4v-4.3c0-0.8,0.6-1.4,1.4-1.4h34.3c0.8,0,1.4,0.6,1.4,1.4V49.8L86.5,49.8z M86.5,37.2
				c0,0.8-0.6,1.4-1.4,1.4H50.8c-0.8,0-1.4-0.6-1.4-1.4V33c0-0.8,0.6-1.4,1.4-1.4h34.3c0.8,0,1.4,0.6,1.4,1.4V37.2L86.5,37.2z"/>
		</g>
	</g>
</g>
</svg>
