<?xml version="1.0" encoding="utf-8"?>
<!-- Generator: Adobe Illustrator 28.3.0, SVG Export Plug-In . SVG Version: 6.00 Build 0)  -->
<svg version="1.1" id="Layer_1" xmlns="http://www.w3.org/2000/svg" xmlns:xlink="http://www.w3.org/1999/xlink" x="0px" y="0px"
	 width="195px" height="151px" viewBox="0 0 195 151" style="enable-background:new 0 0 195 151;" xml:space="preserve">
<g id="SVGRepo_iconCarrier">
	<g>
		<g>
			<path d="M129.8,20.2v-7.7c0-0.8-0.6-1.4-1.4-1.4H92.3c-0.8,0-1.4,0.6-1.4,1.4v6.3c0,0.8-0.6,1.4-1.4,1.4h-24
				c-0.8,0-1.4,0.6-1.4,1.4v112H43.4c-0.8,0-1.4,0.6-1.4,1.4v3.6c0,0.8,0.6,1.4,1.4,1.4h107.2c0.8,0,1.4-0.6,1.4-1.4v-3.6
				c0-0.8-0.6-1.4-1.4-1.4h-20.8v-106V20.2z M78.9,100.1c0,0.8-0.6,1.4-1.4,1.4h-4.1c-0.8,0-1.4-0.6-1.4-1.4v-4.3
				c0-0.8,0.6-1.4,1.4-1.4h4.1c0.8,0,1.4,0.6,1.4,1.4V100.1z M78.9,87.5c0,0.8-0.6,1.4-1.4,1.4h-4.1c-0.8,0-1.4-0.6-1.4-1.4v-4.3
				c0-0.8,0.6-1.4,1.4-1.4h4.1c0.8,0,1.4,0.6,1.4,1.4V87.5z M78.9,75c0,0.8-0.6,1.4-1.4,1.4h-4.1c-0.8,0-1.4-0.6-1.4-1.4v-4.3
				c0-0.8,0.6-1.4,1.4-1.4h4.1c0.8,0,1.4,0.6,1.4,1.4V75z M78.9,62.4c0,0.8-0.6,1.4-1.4,1.4h-4.1c-0.8,0-1.4-0.6-1.4-1.4v-4.3
				c0-0.8,0.6-1.4,1.4-1.4h4.1c0.8,0,1.4,0.6,1.4,1.4V62.4z M78.9,49.8c0,0.8-0.6,1.4-1.4,1.4h-4.1c-0.8,0-1.4-0.6-1.4-1.4v-4.3
				c0-0.8,0.6-1.4,1.4-1.4h4.1c0.8,0,1.4,0.6,1.4,1.4V49.8z M78.9,37.2c0,0.8-0.6,1.4-1.4,1.4h-4.1c-0.8,0-1.4-0.6-1.4-1.4V33
				c0-0.8,0.6-1.4,1.4-1.4h4.1c0.8,0,1.4,0.6,1.4,1.4V37.2z M111,133.6H83V118c0-0.8,0.6-1.4,1.4-1.4h25.3c0.8,0,1.4,0.6,1.4,1.4
				V133.6z M122,100.1c0,0.8-0.6,1.4-1.4,1.4H86.3c-0.8,0-1.4-0.6-1.4-1.4v-4.3c0-0.8,0.6-1.4,1.4-1.4h34.3c0.8,0,1.4,0.6,1.4,1.4
				V100.1L122,100.1z M122,87.5c0,0.8-0.6,1.4-1.4,1.4H86.3c-0.8,0-1.4-0.6-1.4-1.4v-4.3c0-0.8,0.6-1.4,1.4-1.4h34.3
				c0.8,0,1.4,0.6,1.4,1.4V87.5L122,87.5z M122,75c0,0.8-0.6,1.4-1.4,1.4H86.3c-0.8,0-1.4-0.6-1.4-1.4v-4.3c0-0.8,0.6-1.4,1.4-1.4
				h34.3c0.8,0,1.4,0.6,1.4,1.4V75L122,75z M122,62.4c0,0.8-0.6,1.4-1.4,1.4H86.3c-0.8,0-1.4-0.6-1.4-1.4v-4.3
				c0-0.8,0.6-1.4,1.4-1.4h34.3c0.8,0,1.4,0.6,1.4,1.4V62.4L122,62.4z M122,49.8c0,0.8-0.6,1.4-1.4,1.4H86.3c-0.8,0-1.4-0.6-1.4-1.4
				v-4.3c0-0.8,0.6-1.4,1.4-1.4h34.3c0.8,0,1.4,0.6,1.4,1.4V49.8L122,49.8z M122,37.2c0,0.8-0.6,1.4-1.4,1.4H86.3
				c-0.8,0-1.4-0.6-1.4-1.4V33c0-0.8,0.6-1.4,1.4-1.4h34.3c0.8,0,1.4,0.6,1.4,1.4V37.2L122,37.2z"/>
		</g>
	</g>
</g>
</svg>
