<?xml version="1.0" encoding="utf-8"?>
<!-- Generator: Adobe Illustrator 28.3.0, SVG Export Plug-In . SVG Version: 6.00 Build 0)  -->
<svg version="1.1" id="Layer_1" xmlns="http://www.w3.org/2000/svg" xmlns:xlink="http://www.w3.org/1999/xlink" x="0px" y="0px"
	 width="116px" height="151px" viewBox="0 0 116 151" style="enable-background:new 0 0 116 151;" xml:space="preserve">
<g id="SVGRepo_iconCarrier">
	<g>
		<g>
			<path d="M90.8,20.2v-7.7c0-0.8-0.6-1.4-1.4-1.4H53.3c-0.8,0-1.4,0.6-1.4,1.4v6.3c0,0.8-0.6,1.4-1.4,1.4h-24
				c-0.8,0-1.4,0.6-1.4,1.4v112H4.4c-0.8,0-1.4,0.6-1.4,1.4v3.6c0,0.8,0.6,1.4,1.4,1.4h107.2c0.8,0,1.4-0.6,1.4-1.4v-3.6
				c0-0.8-0.6-1.4-1.4-1.4H90.8v-106V20.2z M39.9,100.1c0,0.8-0.6,1.4-1.4,1.4h-4.1c-0.8,0-1.4-0.6-1.4-1.4v-4.3
				c0-0.8,0.6-1.4,1.4-1.4h4.1c0.8,0,1.4,0.6,1.4,1.4V100.1z M39.9,87.5c0,0.8-0.6,1.4-1.4,1.4h-4.1c-0.8,0-1.4-0.6-1.4-1.4v-4.3
				c0-0.8,0.6-1.4,1.4-1.4h4.1c0.8,0,1.4,0.6,1.4,1.4V87.5z M39.9,75c0,0.8-0.6,1.4-1.4,1.4h-4.1c-0.8,0-1.4-0.6-1.4-1.4v-4.3
				c0-0.8,0.6-1.4,1.4-1.4h4.1c0.8,0,1.4,0.6,1.4,1.4V75z M39.9,62.4c0,0.8-0.6,1.4-1.4,1.4h-4.1c-0.8,0-1.4-0.6-1.4-1.4v-4.3
				c0-0.8,0.6-1.4,1.4-1.4h4.1c0.8,0,1.4,0.6,1.4,1.4V62.4z M39.9,49.8c0,0.8-0.6,1.4-1.4,1.4h-4.1c-0.8,0-1.4-0.6-1.4-1.4v-4.3
				c0-0.8,0.6-1.4,1.4-1.4h4.1c0.8,0,1.4,0.6,1.4,1.4V49.8z M39.9,37.2c0,0.8-0.6,1.4-1.4,1.4h-4.1c-0.8,0-1.4-0.6-1.4-1.4V33
				c0-0.8,0.6-1.4,1.4-1.4h4.1c0.8,0,1.4,0.6,1.4,1.4V37.2z M72,133.6H44V118c0-0.8,0.6-1.4,1.4-1.4h25.3c0.8,0,1.4,0.6,1.4,1.4
				V133.6z M83,100.1c0,0.8-0.6,1.4-1.4,1.4H47.3c-0.8,0-1.4-0.6-1.4-1.4v-4.3c0-0.8,0.6-1.4,1.4-1.4h34.3c0.8,0,1.4,0.6,1.4,1.4
				V100.1L83,100.1z M83,87.5c0,0.8-0.6,1.4-1.4,1.4H47.3c-0.8,0-1.4-0.6-1.4-1.4v-4.3c0-0.8,0.6-1.4,1.4-1.4h34.3
				c0.8,0,1.4,0.6,1.4,1.4V87.5L83,87.5z M83,75c0,0.8-0.6,1.4-1.4,1.4H47.3c-0.8,0-1.4-0.6-1.4-1.4v-4.3c0-0.8,0.6-1.4,1.4-1.4
				h34.3c0.8,0,1.4,0.6,1.4,1.4V75L83,75z M83,62.4c0,0.8-0.6,1.4-1.4,1.4H47.3c-0.8,0-1.4-0.6-1.4-1.4v-4.3c0-0.8,0.6-1.4,1.4-1.4
				h34.3c0.8,0,1.4,0.6,1.4,1.4V62.4L83,62.4z M83,49.8c0,0.8-0.6,1.4-1.4,1.4H47.3c-0.8,0-1.4-0.6-1.4-1.4v-4.3
				c0-0.8,0.6-1.4,1.4-1.4h34.3c0.8,0,1.4,0.6,1.4,1.4V49.8L83,49.8z M83,37.2c0,0.8-0.6,1.4-1.4,1.4H47.3c-0.8,0-1.4-0.6-1.4-1.4
				V33c0-0.8,0.6-1.4,1.4-1.4h34.3c0.8,0,1.4,0.6,1.4,1.4V37.2L83,37.2z"/>
		</g>
	</g>
</g>
</svg>
